<svg xmlns="http://www.w3.org/2000/svg" xmlns:xlink="http://www.w3.org/1999/xlink" width="40" zoomAndPan="magnify" viewBox="0 0 30 30.000001" height="40" preserveAspectRatio="xMidYMid meet" version="1.0"><defs><g/><clipPath id="288c0329b3"><path d="M 1 4 L 29 4 L 29 25 L 1 25 Z M 1 4 " clip-rule="nonzero"/></clipPath><clipPath id="5d6cb03578"><path d="M 0.484375 7.351562 L 26.78125 1.914062 L 30.898438 21.8125 L 4.601562 27.253906 Z M 0.484375 7.351562 " clip-rule="nonzero"/></clipPath><clipPath id="49265d0be4"><path d="M 0.484375 7.351562 L 26.78125 1.914062 L 30.898438 21.8125 L 4.601562 27.253906 Z M 0.484375 7.351562 " clip-rule="nonzero"/></clipPath><clipPath id="cae3f6d99d"><path d="M 0.484375 7.351562 L 26.78125 1.914062 L 30.898438 21.8125 L 4.601562 27.253906 Z M 0.484375 7.351562 " clip-rule="nonzero"/></clipPath><clipPath id="a1ffa3637c"><path d="M 2 4 L 29 4 L 29 24 L 2 24 Z M 2 4 " clip-rule="nonzero"/></clipPath><clipPath id="b4479c84d3"><path d="M 0.484375 7.351562 L 26.78125 1.914062 L 30.898438 21.8125 L 4.601562 27.253906 Z M 0.484375 7.351562 " clip-rule="nonzero"/></clipPath><clipPath id="f11d30ff41"><path d="M 0.484375 7.351562 L 26.78125 1.914062 L 30.898438 21.8125 L 4.601562 27.253906 Z M 0.484375 7.351562 " clip-rule="nonzero"/></clipPath><clipPath id="6837153c90"><path d="M 0.484375 7.351562 L 26.78125 1.914062 L 30.898438 21.8125 L 4.601562 27.253906 Z M 0.484375 7.351562 " clip-rule="nonzero"/></clipPath><clipPath id="9daef9c718"><path d="M 7 2 L 27 2 L 27 20 L 7 20 Z M 7 2 " clip-rule="nonzero"/></clipPath><clipPath id="6274c0496c"><path d="M 7.101562 11.476562 L 22.21875 2.824219 L 26.546875 10.382812 L 11.429688 19.035156 Z M 7.101562 11.476562 " clip-rule="nonzero"/></clipPath><clipPath id="c6707de944"><path d="M 0 5 L 19 5 L 19 11 L 0 11 Z M 0 5 " clip-rule="nonzero"/></clipPath><clipPath id="6f23fcfb87"><path d="M 0.101562 9.476562 L 15.21875 0.824219 L 19.546875 8.382812 L 4.429688 17.035156 Z M 0.101562 9.476562 " clip-rule="nonzero"/></clipPath><clipPath id="cfd74647fd"><path d="M 15.03125 0.929688 L -0.0859375 9.585938 L 4.242188 17.144531 L 19.359375 8.488281 Z M 15.03125 0.929688 " clip-rule="nonzero"/></clipPath><clipPath id="9d775f3a71"><rect x="0" width="20" y="0" height="18"/></clipPath><clipPath id="0ec7b2d722"><path d="M 0.199219 4 L 9 4 L 9 11 L 0.199219 11 Z M 0.199219 4 " clip-rule="nonzero"/></clipPath><clipPath id="028001cf11"><path d="M 12 2 L 18.546875 2 L 18.546875 10 L 12 10 Z M 12 2 " clip-rule="nonzero"/></clipPath><clipPath id="0596d6e929"><rect x="0" width="19" y="0" height="13"/></clipPath></defs><g clip-path="url(#288c0329b3)"><g clip-path="url(#5d6cb03578)"><g clip-path="url(#49265d0be4)"><g clip-path="url(#cae3f6d99d)"><path fill="#ffffff" d="M 28.222656 9.269531 C 27.941406 8.355469 27.621094 7.636719 27.210938 7.007812 C 26.671875 6.175781 25.960938 5.550781 25.03125 5.09375 C 23.722656 4.449219 22.253906 4.140625 20.40625 4.121094 C 19.128906 4.109375 17.839844 4.203125 16.636719 4.304688 C 16.472656 4.320312 16.3125 4.332031 16.148438 4.347656 C 15.59375 4.390625 15.023438 4.4375 14.457031 4.511719 C 14.019531 4.566406 13.574219 4.644531 13.089844 4.742188 C 12.683594 4.828125 12.246094 4.929688 11.757812 5.054688 C 10.589844 5.355469 9.359375 5.730469 7.996094 6.207031 C 6.757812 6.640625 5.785156 7.058594 4.933594 7.519531 C 4.257812 7.886719 3.621094 8.378906 3.050781 8.972656 C 2.664062 9.378906 2.378906 9.886719 2.179688 10.523438 C 1.917969 11.367188 1.816406 12.253906 1.867188 13.230469 C 1.949219 14.785156 2.316406 16.320312 2.960938 17.796875 C 3.476562 18.984375 4.253906 19.878906 5.273438 20.457031 L 5.324219 20.484375 C 5.402344 20.53125 5.503906 20.589844 5.621094 20.632812 C 6.429688 20.953125 7.511719 21.332031 8.703125 21.46875 C 9.359375 21.546875 10.132812 21.621094 10.945312 21.617188 C 11.65625 22.585938 12.644531 23.304688 13.953125 23.816406 C 14.6875 24.105469 15.570312 24.414062 16.535156 24.527344 C 17.050781 24.589844 17.554688 24.539062 18.019531 24.472656 C 18.039062 24.46875 18.058594 24.464844 18.074219 24.460938 C 18.332031 24.410156 18.527344 24.238281 18.609375 24 C 18.65625 23.925781 18.75 23.765625 18.746094 23.546875 C 18.738281 23.285156 18.558594 23.0625 18.308594 23.003906 C 18.257812 22.992188 18.207031 22.980469 18.15625 22.972656 C 18.109375 22.964844 18.046875 22.949219 18.027344 22.941406 C 17.214844 22.582031 16.660156 22.144531 16.277344 21.558594 C 16.175781 21.410156 16.085938 21.25 16.011719 21.09375 C 16.019531 21.089844 16.027344 21.089844 16.035156 21.085938 C 17.773438 20.726562 19.519531 20.28125 21.226562 19.753906 C 22.5 19.363281 23.714844 18.894531 24.835938 18.359375 C 25.566406 18.015625 26.175781 17.628906 26.707031 17.1875 C 27.796875 16.277344 28.433594 15.105469 28.597656 13.707031 C 28.710938 12.742188 28.71875 11.878906 28.625 11.066406 C 28.5625 10.527344 28.441406 9.972656 28.222656 9.269531 Z M 28.222656 9.269531 " fill-opacity="1" fill-rule="nonzero"/></g></g></g></g><g clip-path="url(#a1ffa3637c)"><g clip-path="url(#b4479c84d3)"><g clip-path="url(#f11d30ff41)"><g clip-path="url(#6837153c90)"><path fill="#0b0b0b" d="M 18.175781 23.558594 C 18.046875 23.527344 17.910156 23.515625 17.792969 23.464844 C 16.992188 23.105469 16.289062 22.617188 15.800781 21.875 C 15.585938 21.550781 15.414062 21.199219 15.292969 20.828125 C 15.246094 20.679688 15.246094 20.675781 15.398438 20.636719 C 15.503906 20.613281 15.613281 20.589844 15.71875 20.570312 C 17.523438 20.203125 19.300781 19.75 21.058594 19.210938 C 22.269531 18.839844 23.449219 18.390625 24.589844 17.847656 C 25.21875 17.546875 25.804688 17.199219 26.339844 16.75 C 27.316406 15.9375 27.882812 14.902344 28.03125 13.640625 C 28.128906 12.804688 28.15625 11.972656 28.058594 11.132812 C 27.992188 10.550781 27.847656 9.992188 27.679688 9.4375 C 27.449219 8.691406 27.160156 7.972656 26.734375 7.316406 C 26.242188 6.5625 25.59375 6.003906 24.78125 5.605469 C 23.394531 4.921875 21.917969 4.707031 20.398438 4.691406 C 19.15625 4.679688 17.921875 4.765625 16.6875 4.875 C 15.96875 4.933594 15.246094 4.984375 14.53125 5.074219 C 13.640625 5.191406 12.765625 5.382812 11.898438 5.605469 C 10.644531 5.929688 9.410156 6.316406 8.1875 6.746094 C 7.164062 7.101562 6.160156 7.503906 5.203125 8.019531 C 4.550781 8.375 3.976562 8.832031 3.460938 9.367188 C 3.101562 9.742188 2.878906 10.199219 2.722656 10.691406 C 2.46875 11.511719 2.390625 12.347656 2.4375 13.199219 C 2.519531 14.722656 2.878906 16.175781 3.484375 17.570312 C 3.921875 18.578125 4.582031 19.410156 5.558594 19.960938 C 5.644531 20.011719 5.734375 20.066406 5.828125 20.105469 C 6.777344 20.476562 7.746094 20.785156 8.769531 20.902344 C 9.550781 20.996094 10.335938 21.0625 11.125 21.042969 C 11.199219 21.042969 11.246094 21.054688 11.296875 21.125 C 12.007812 22.167969 13.003906 22.835938 14.160156 23.285156 C 14.953125 23.59375 15.753906 23.863281 16.601562 23.964844 C 17.050781 24.015625 17.496094 23.972656 17.9375 23.90625 C 18.007812 23.898438 18.054688 23.875 18.074219 23.800781 C 18.09375 23.71875 18.175781 23.664062 18.175781 23.558594 Z M 5.410156 19.589844 C 5.429688 19.601562 5.449219 19.613281 5.46875 19.628906 C 5.492188 19.640625 5.515625 19.65625 5.515625 19.6875 C 5.546875 19.6875 5.570312 19.695312 5.558594 19.734375 C 5.582031 19.71875 5.597656 19.71875 5.59375 19.753906 C 5.582031 19.746094 5.574219 19.738281 5.5625 19.730469 C 5.535156 19.734375 5.515625 19.722656 5.507812 19.695312 C 5.476562 19.703125 5.457031 19.691406 5.445312 19.664062 C 5.421875 19.664062 5.402344 19.652344 5.390625 19.628906 C 5.367188 19.625 5.339844 19.613281 5.34375 19.59375 C 5.359375 19.546875 5.386719 19.574219 5.410156 19.589844 Z M 5.671875 19.265625 C 5.691406 19.269531 5.71875 19.28125 5.703125 19.304688 C 5.683594 19.328125 5.667969 19.300781 5.65625 19.28125 C 5.628906 19.285156 5.613281 19.273438 5.601562 19.246094 C 5.558594 19.246094 5.535156 19.21875 5.511719 19.1875 C 5.496094 19.175781 5.480469 19.164062 5.464844 19.152344 C 5.425781 19.132812 5.386719 19.105469 5.363281 19.0625 C 5.015625 18.789062 4.734375 18.464844 4.554688 18.058594 C 4.835938 18.378906 5.089844 18.722656 5.398438 19.019531 C 5.4375 19.042969 5.472656 19.066406 5.492188 19.109375 C 5.519531 19.113281 5.535156 19.128906 5.546875 19.152344 C 5.582031 19.15625 5.601562 19.1875 5.621094 19.21875 C 5.636719 19.234375 5.65625 19.25 5.671875 19.265625 Z M 13.304688 22.386719 C 13.289062 22.371094 13.273438 22.351562 13.257812 22.335938 C 13.234375 22.328125 13.210938 22.3125 13.230469 22.292969 C 13.246094 22.269531 13.261719 22.296875 13.273438 22.3125 C 13.300781 22.308594 13.320312 22.320312 13.332031 22.34375 C 13.359375 22.347656 13.375 22.359375 13.386719 22.382812 C 13.425781 22.390625 13.457031 22.414062 13.480469 22.449219 C 13.492188 22.453125 13.503906 22.457031 13.511719 22.46875 C 13.597656 22.511719 13.671875 22.566406 13.734375 22.640625 C 13.761719 22.652344 13.792969 22.664062 13.777344 22.699219 C 13.769531 22.722656 13.746094 22.722656 13.722656 22.707031 C 13.625 22.675781 13.554688 22.609375 13.488281 22.53125 C 13.472656 22.515625 13.453125 22.503906 13.4375 22.488281 C 13.398438 22.480469 13.371094 22.453125 13.351562 22.421875 C 13.335938 22.410156 13.320312 22.398438 13.304688 22.386719 Z M 25.53125 6.222656 C 25.570312 6.238281 25.59375 6.261719 25.597656 6.304688 C 25.632812 6.292969 25.644531 6.316406 25.652344 6.339844 C 25.710938 6.367188 25.769531 6.394531 25.769531 6.480469 C 25.691406 6.46875 25.660156 6.421875 25.640625 6.363281 C 25.613281 6.359375 25.597656 6.339844 25.59375 6.3125 C 25.539062 6.304688 25.527344 6.265625 25.535156 6.21875 C 25.511719 6.234375 25.496094 6.238281 25.5 6.203125 C 25.507812 6.210938 25.519531 6.21875 25.53125 6.222656 Z M 14.296875 22.996094 C 14.320312 23.011719 14.367188 23.015625 14.347656 23.050781 C 14.328125 23.078125 14.292969 23.058594 14.273438 23.03125 C 14.246094 23.035156 14.226562 23.027344 14.210938 23.003906 C 14.125 22.96875 14.03125 22.949219 13.957031 22.808594 C 14.09375 22.847656 14.171875 22.902344 14.246094 22.960938 C 14.265625 22.972656 14.28125 22.984375 14.296875 22.996094 Z M 27.871094 13.703125 C 27.882812 13.683594 27.894531 13.667969 27.910156 13.652344 C 27.9375 13.675781 27.933594 13.699219 27.90625 13.722656 C 27.914062 13.757812 27.921875 13.789062 27.890625 13.816406 C 27.882812 13.839844 27.882812 13.878906 27.84375 13.878906 C 27.8125 13.875 27.824219 13.847656 27.824219 13.824219 C 27.816406 13.773438 27.84375 13.738281 27.871094 13.703125 Z M 3.402344 10.542969 C 3.410156 10.527344 3.417969 10.5 3.441406 10.515625 C 3.464844 10.527344 3.449219 10.550781 3.429688 10.5625 C 3.4375 10.613281 3.40625 10.648438 3.382812 10.6875 C 3.238281 11.09375 3.121094 11.511719 3 11.925781 C 3.046875 11.484375 3.113281 11.054688 3.332031 10.660156 C 3.339844 10.613281 3.363281 10.574219 3.402344 10.542969 Z M 24.363281 5.695312 C 24.285156 5.738281 24.238281 5.707031 24.183594 5.632812 C 24.269531 5.628906 24.324219 5.648438 24.363281 5.699219 C 24.371094 5.707031 24.414062 5.691406 24.378906 5.726562 C 24.371094 5.734375 24.355469 5.714844 24.363281 5.695312 Z M 27.320312 13.699219 C 27.328125 13.652344 27.273438 13.609375 27.324219 13.566406 C 27.347656 13.609375 27.34375 13.652344 27.316406 13.695312 C 27.316406 13.761719 27.351562 13.839844 27.269531 13.898438 C 27.265625 13.820312 27.28125 13.757812 27.320312 13.699219 Z M 5.203125 19.511719 C 5.144531 19.484375 5.082031 19.460938 5.054688 19.394531 C 4.675781 19.082031 4.339844 18.730469 4.101562 18.296875 L 4.109375 18.296875 C 4.109375 18.296875 4.105469 18.300781 4.105469 18.300781 C 4.125 18.3125 4.148438 18.320312 4.160156 18.335938 C 4.457031 18.660156 4.753906 18.980469 5.050781 19.304688 C 5.125 19.335938 5.175781 19.394531 5.230469 19.449219 C 5.265625 19.472656 5.324219 19.492188 5.289062 19.542969 C 5.265625 19.582031 5.230469 19.535156 5.203125 19.511719 Z M 4.394531 10.597656 C 4.394531 10.578125 4.390625 10.546875 4.417969 10.558594 C 4.441406 10.570312 4.425781 10.59375 4.40625 10.605469 C 4.421875 10.710938 4.382812 10.800781 4.347656 10.890625 C 4.265625 11.226562 4.207031 11.566406 4.179688 11.910156 C 4.105469 12.949219 4.167969 13.988281 4.25 15.027344 C 4.269531 15.261719 4.316406 15.496094 4.277344 15.734375 C 4.253906 15.699219 4.242188 15.667969 4.234375 15.632812 C 3.96875 14.625 3.945312 13.605469 4.019531 12.578125 C 4.0625 12.015625 4.101562 11.453125 4.269531 10.910156 C 4.277344 10.792969 4.316406 10.6875 4.394531 10.597656 Z M 6.21875 19.050781 C 6.074219 18.980469 5.945312 18.894531 5.84375 18.765625 C 5.558594 18.507812 5.316406 18.210938 5.097656 17.898438 C 4.894531 17.601562 4.703125 17.296875 4.578125 16.957031 C 4.5625 16.914062 4.53125 16.867188 4.613281 16.832031 C 5.015625 17.46875 5.367188 18.140625 5.894531 18.695312 C 6.023438 18.78125 6.136719 18.886719 6.242188 19 C 6.269531 19.011719 6.296875 19.027344 6.273438 19.0625 C 6.269531 19.070312 6.238281 19.054688 6.21875 19.050781 Z M 23.988281 5.597656 C 23.6875 5.519531 23.382812 5.4375 23.082031 5.359375 C 21.921875 5.125 20.753906 5.074219 19.578125 5.140625 C 18.527344 5.199219 17.480469 5.273438 16.4375 5.398438 C 15.253906 5.535156 14.070312 5.660156 12.898438 5.902344 C 12.195312 6.0625 11.488281 6.222656 10.765625 6.386719 C 11.175781 6.21875 11.585938 6.121094 11.992188 6.011719 C 12.269531 5.933594 12.550781 5.859375 12.835938 5.828125 C 12.914062 5.808594 12.992188 5.792969 13.066406 5.777344 C 14 5.566406 14.953125 5.457031 15.898438 5.3125 C 16.488281 5.222656 17.074219 5.132812 17.671875 5.097656 C 18.53125 5.046875 19.394531 5.03125 20.253906 5.015625 C 21.222656 4.996094 22.179688 5.074219 23.125 5.285156 C 23.4375 5.324219 23.738281 5.421875 24.027344 5.546875 C 24.082031 5.566406 24.148438 5.554688 24.171875 5.640625 C 24.097656 5.671875 24.046875 5.625 23.988281 5.597656 Z M 26.609375 7.492188 C 26.308594 7.183594 26.039062 6.855469 25.765625 6.519531 C 25.820312 6.484375 25.847656 6.503906 25.867188 6.523438 C 26.113281 6.773438 26.351562 7.027344 26.542969 7.324219 C 26.574219 7.378906 26.613281 7.429688 26.609375 7.496094 C 26.617188 7.5 26.628906 7.507812 26.640625 7.515625 C 26.644531 7.515625 26.640625 7.523438 26.640625 7.53125 C 26.628906 7.515625 26.621094 7.503906 26.609375 7.492188 Z M 5.902344 8.832031 C 5.871094 8.859375 5.832031 8.894531 5.800781 8.84375 C 5.785156 8.8125 5.828125 8.800781 5.855469 8.796875 C 6.023438 8.652344 6.214844 8.546875 6.410156 8.453125 C 7.101562 8.113281 7.820312 7.847656 8.570312 7.664062 C 8.710938 7.628906 8.855469 7.601562 9.011719 7.570312 C 8.960938 7.519531 8.917969 7.527344 8.890625 7.550781 C 8.703125 7.707031 8.46875 7.75 8.25 7.828125 C 7.441406 8.105469 6.644531 8.410156 5.902344 8.832031 Z M 16.015625 5.117188 C 15.566406 5.191406 15.121094 5.269531 14.671875 5.335938 C 13.503906 5.511719 12.34375 5.746094 11.203125 6.050781 C 11.050781 6.09375 10.898438 6.132812 10.742188 6.140625 C 10.710938 6.234375 10.617188 6.222656 10.546875 6.242188 C 10.410156 6.277344 10.265625 6.300781 10.125 6.332031 C 10.125 6.324219 10.121094 6.320312 10.121094 6.316406 C 10.328125 6.257812 10.535156 6.195312 10.742188 6.132812 C 10.929688 6.074219 11.117188 6.011719 11.304688 5.957031 C 12.839844 5.507812 14.402344 5.183594 16.003906 5.085938 C 16.132812 5.078125 16.261719 5.066406 16.390625 5.058594 C 16.265625 5.089844 16.152344 5.1875 16.015625 5.117188 Z M 27.785156 13.960938 C 27.792969 13.933594 27.796875 13.898438 27.839844 13.914062 C 27.878906 13.933594 27.851562 13.964844 27.847656 13.992188 C 27.839844 14.046875 27.839844 14.101562 27.828125 14.152344 C 27.644531 14.832031 27.324219 15.441406 26.910156 16.003906 C 26.671875 16.332031 26.378906 16.609375 26.042969 16.832031 C 25.824219 16.976562 25.632812 17.171875 25.367188 17.242188 C 25.324219 17.386719 25.191406 17.339844 25.09375 17.367188 C 25.140625 17.285156 25.210938 17.230469 25.296875 17.195312 C 25.449219 17.0625 25.597656 16.929688 25.753906 16.804688 C 26.382812 16.285156 26.886719 15.660156 27.296875 14.960938 C 27.484375 14.640625 27.667969 14.316406 27.785156 13.960938 Z M 21.554688 18.871094 C 21.039062 19.042969 20.523438 19.195312 20 19.34375 C 18.945312 19.640625 17.878906 19.910156 16.8125 20.175781 C 16.335938 20.296875 15.851562 20.40625 15.367188 20.496094 C 15.304688 20.507812 15.222656 20.550781 15.199219 20.4375 C 15.183594 20.339844 15.234375 20.292969 15.324219 20.273438 C 15.402344 20.257812 15.476562 20.238281 15.554688 20.222656 C 16.273438 20.09375 16.992188 19.972656 17.703125 19.808594 C 18.996094 19.511719 20.273438 19.164062 21.542969 18.789062 C 21.980469 18.617188 22.429688 18.492188 22.914062 18.34375 C 22.828125 18.441406 22.746094 18.449219 22.675781 18.472656 C 22.308594 18.617188 21.941406 18.78125 21.554688 18.871094 Z M 4.542969 9.980469 C 4.542969 9.957031 4.558594 9.933594 4.578125 9.949219 C 4.601562 9.96875 4.582031 9.984375 4.558594 9.988281 C 4.554688 10.121094 4.464844 10.21875 4.402344 10.320312 C 4.183594 10.664062 4.050781 11.035156 3.980469 11.433594 C 3.839844 12.246094 3.785156 13.066406 3.78125 13.890625 C 3.78125 14.066406 3.773438 14.238281 3.769531 14.414062 C 3.683594 14.195312 3.636719 13.980469 3.59375 13.757812 C 3.460938 13.066406 3.457031 12.371094 3.597656 11.679688 C 3.734375 11.015625 4.085938 10.46875 4.542969 9.980469 Z M 22.167969 5.578125 C 23 5.648438 23.796875 5.855469 24.570312 6.179688 C 25.558594 6.59375 26.253906 7.296875 26.726562 8.242188 C 27 8.789062 27.1875 9.367188 27.339844 9.941406 C 27.246094 9.804688 27.1875 9.636719 27.117188 9.472656 C 26.894531 8.957031 26.679688 8.433594 26.375 7.957031 C 26.054688 7.449219 25.6875 6.984375 25.144531 6.695312 C 24.484375 6.339844 23.8125 6.03125 23.082031 5.855469 C 22.785156 5.785156 22.484375 5.734375 22.183594 5.667969 C 21.875 5.648438 21.796875 5.625 21.660156 5.503906 C 21.851562 5.542969 22.011719 5.519531 22.167969 5.578125 Z M 26.921875 14.109375 C 26.925781 13.988281 26.996094 13.894531 27.03125 13.785156 C 27.066406 13.683594 27.082031 13.570312 27.175781 13.496094 C 27.148438 13.726562 27.085938 13.941406 26.988281 14.148438 C 26.910156 14.464844 26.75 14.738281 26.585938 15.011719 C 26.207031 15.636719 25.660156 16.089844 25.046875 16.46875 C 23.753906 17.265625 22.3125 17.671875 20.855469 18.023438 C 20.824219 18.027344 20.78125 18.054688 20.761719 18 C 21.476562 17.730469 22.199219 17.496094 22.902344 17.203125 C 23.730469 16.863281 24.539062 16.492188 25.285156 15.992188 C 26 15.507812 26.582031 14.914062 26.921875 14.109375 Z M 25.636719 7.648438 C 25.449219 7.496094 25.265625 7.335938 25.054688 7.210938 C 24.597656 6.945312 24.121094 6.722656 23.621094 6.566406 C 22.519531 6.21875 21.386719 6.09375 20.238281 6.070312 C 19.035156 6.046875 17.835938 6.097656 16.640625 6.203125 C 15.890625 6.269531 15.140625 6.34375 14.394531 6.449219 C 13.828125 6.527344 13.269531 6.648438 12.703125 6.730469 C 12.421875 6.859375 12.109375 6.863281 11.8125 6.925781 C 12.101562 6.847656 12.378906 6.71875 12.683594 6.6875 C 14.300781 6.316406 15.921875 5.984375 17.578125 5.84375 C 18.78125 5.746094 19.988281 5.710938 21.195312 5.777344 C 22.222656 5.832031 23.222656 5.988281 24.171875 6.402344 C 24.773438 6.667969 25.335938 6.988281 25.6875 7.578125 C 25.746094 7.628906 25.800781 7.679688 25.800781 7.773438 C 25.714844 7.757812 25.671875 7.707031 25.636719 7.648438 Z M 16.109375 23.277344 C 16.027344 23.316406 15.992188 23.300781 15.957031 23.292969 C 15.238281 23.128906 14.570312 22.851562 13.957031 22.441406 C 13.449219 22.101562 13.046875 21.671875 12.742188 21.148438 C 12.535156 20.792969 12.347656 20.425781 12.175781 20.054688 C 11.9375 19.542969 11.90625 19.527344 11.339844 19.585938 C 10.816406 19.644531 10.300781 19.738281 9.773438 19.773438 C 9.050781 19.820312 8.332031 19.773438 7.625 19.613281 C 6.929688 19.453125 6.398438 19.039062 5.933594 18.519531 C 5.449219 17.980469 5.085938 17.359375 4.738281 16.726562 C 4.589844 16.453125 4.492188 16.167969 4.472656 15.855469 C 4.433594 15.355469 4.386719 14.855469 4.359375 14.355469 C 4.3125 13.535156 4.285156 12.710938 4.347656 11.890625 C 4.402344 11.199219 4.511719 10.519531 4.792969 9.878906 C 4.855469 9.738281 4.902344 9.613281 5.039062 9.527344 C 5.40625 9.296875 5.765625 9.0625 6.160156 8.882812 C 7.398438 8.316406 8.667969 7.851562 9.988281 7.507812 C 11.539062 7.105469 13.113281 6.8125 14.699219 6.589844 C 15.796875 6.433594 16.894531 6.316406 18 6.242188 C 19.175781 6.164062 20.351562 6.128906 21.527344 6.246094 C 22.554688 6.34375 23.550781 6.554688 24.484375 7.023438 C 25.335938 7.449219 26.003906 8.027344 26.398438 8.914062 C 26.929688 10.101562 27.183594 11.34375 27.125 12.640625 C 27.082031 13.5625 26.742188 14.378906 26.132812 15.078125 C 25.714844 15.558594 25.1875 15.898438 24.644531 16.214844 C 23.867188 16.660156 23.046875 17.011719 22.203125 17.316406 C 21.3125 17.640625 20.414062 17.945312 19.496094 18.203125 C 18.566406 18.460938 17.628906 18.683594 16.691406 18.925781 C 16.09375 19.082031 15.488281 19.21875 14.914062 19.464844 C 14.597656 19.605469 14.410156 19.824219 14.339844 20.15625 C 14.253906 20.542969 14.308594 20.921875 14.476562 21.277344 C 14.730469 21.835938 15.105469 22.304688 15.539062 22.730469 C 15.722656 22.910156 15.910156 23.085938 16.109375 23.277344 Z M 15.820312 5.648438 C 15.796875 5.65625 15.777344 5.667969 15.757812 5.675781 C 13.425781 6.171875 11.089844 6.660156 8.8125 7.378906 C 8.257812 7.554688 7.699219 7.714844 7.152344 7.914062 C 7.101562 7.933594 7.050781 7.945312 7 7.957031 C 6.992188 7.960938 6.984375 7.953125 6.976562 7.949219 C 6.953125 7.925781 7.003906 7.933594 6.972656 7.929688 C 9.054688 6.859375 12.902344 5.957031 15.820312 5.648438 Z M 20.480469 18.894531 C 20.484375 18.910156 20.484375 18.925781 20.488281 18.941406 C 18.726562 19.4375 16.9375 19.800781 15.101562 20.121094 C 15.15625 19.972656 15.261719 19.976562 15.34375 19.953125 C 15.96875 19.792969 16.605469 19.699219 17.234375 19.566406 C 18.316406 19.339844 19.398438 19.121094 20.480469 18.894531 Z M 14.609375 23.054688 C 14.648438 23.019531 14.679688 23.039062 14.707031 23.046875 C 15.226562 23.261719 15.765625 23.417969 16.324219 23.511719 C 16.410156 23.527344 16.507812 23.539062 16.566406 23.628906 C 16.519531 23.6875 16.464844 23.65625 16.414062 23.648438 C 16.183594 23.605469 15.953125 23.5625 15.722656 23.515625 C 15.433594 23.457031 15.144531 23.390625 14.875 23.261719 C 14.773438 23.210938 14.667969 23.160156 14.609375 23.054688 Z M 15.851562 22.132812 C 15.761719 22.140625 15.734375 22.109375 15.710938 22.082031 C 15.445312 21.808594 15.238281 21.5 15.09375 21.148438 C 15.050781 21.039062 15.019531 20.925781 14.984375 20.816406 C 14.96875 20.769531 14.960938 20.71875 15.027344 20.703125 C 15.078125 20.691406 15.121094 20.707031 15.140625 20.757812 C 15.15625 20.804688 15.167969 20.847656 15.183594 20.890625 C 15.238281 21.03125 15.277344 21.179688 15.351562 21.304688 C 15.519531 21.570312 15.628906 21.871094 15.851562 22.132812 Z M 12.527344 22.199219 C 12.429688 22.214844 12.386719 22.152344 12.339844 22.109375 C 12.023438 21.816406 11.730469 21.5 11.484375 21.144531 C 11.449219 21.09375 11.347656 21.03125 11.429688 20.972656 C 11.5 20.917969 11.546875 21.015625 11.589844 21.070312 C 11.59375 21.074219 11.597656 21.082031 11.601562 21.089844 C 11.820312 21.425781 12.089844 21.71875 12.382812 21.992188 C 12.445312 22.046875 12.511719 22.105469 12.527344 22.199219 Z M 12.792969 21.507812 C 12.5 21.207031 12.277344 20.886719 12.113281 20.523438 C 12.09375 20.484375 12.089844 20.441406 12.136719 20.425781 C 12.191406 20.402344 12.21875 20.421875 12.253906 20.484375 C 12.4375 20.800781 12.570312 21.140625 12.789062 21.433594 C 12.796875 21.445312 12.789062 21.464844 12.792969 21.507812 Z M 3.644531 15.898438 C 3.742188 16.1875 3.84375 16.472656 3.9375 16.761719 C 4.027344 17.042969 4.199219 17.292969 4.269531 17.582031 C 3.875 17.09375 3.703125 16.515625 3.644531 15.898438 Z M 9.535156 20.828125 C 9.832031 20.820312 10.125 20.808594 10.421875 20.808594 C 10.625 20.808594 10.828125 20.789062 11.027344 20.835938 C 11.066406 20.84375 11.136719 20.824219 11.136719 20.894531 C 11.132812 20.957031 11.074219 20.945312 11.027344 20.941406 C 10.699219 20.933594 10.367188 20.929688 10.039062 20.914062 C 9.871094 20.90625 9.699219 20.910156 9.535156 20.828125 Z M 27.328125 11.84375 C 27.316406 11.664062 27.308594 11.484375 27.289062 11.308594 C 27.269531 11.128906 27.234375 10.953125 27.210938 10.777344 C 27.1875 10.609375 27.113281 10.441406 27.160156 10.21875 C 27.304688 10.789062 27.445312 11.304688 27.328125 11.84375 Z M 4.890625 8.976562 C 4.765625 9.074219 4.644531 9.171875 4.519531 9.265625 C 4.609375 9.125 4.734375 9.03125 4.890625 8.976562 Z M 16.140625 23.097656 C 16.289062 23.164062 16.449219 23.210938 16.546875 23.355469 C 16.378906 23.316406 16.234375 23.246094 16.140625 23.097656 Z M 6.695312 8.042969 C 6.792969 7.972656 6.851562 7.902344 6.957031 7.933594 C 6.960938 7.933594 6.964844 7.949219 6.960938 7.953125 C 6.925781 8.042969 6.835938 8.050781 6.757812 8.066406 C 6.753906 8.070312 6.746094 8.0625 6.695312 8.042969 Z M 11.96875 19.980469 C 12.035156 20.050781 12.0625 20.117188 12.035156 20.195312 C 12.03125 20.203125 12.007812 20.21875 12.003906 20.214844 C 11.921875 20.167969 11.929688 20.09375 11.941406 20.019531 C 11.941406 20.015625 11.945312 20.007812 11.96875 19.980469 Z M 15.058594 20.371094 C 15.089844 20.378906 15.097656 20.410156 15.105469 20.4375 C 15.113281 20.472656 15.117188 20.515625 15.085938 20.539062 C 15.074219 20.550781 15.039062 20.546875 15.027344 20.535156 C 14.992188 20.511719 14.996094 20.472656 15.003906 20.433594 C 15.011719 20.40625 15.027344 20.378906 15.058594 20.371094 Z M 4.324219 16.414062 C 4.292969 16.355469 4.277344 16.320312 4.292969 16.28125 C 4.324219 16.304688 4.324219 16.34375 4.324219 16.414062 Z M 5.09375 8.601562 C 5.101562 8.5625 5.121094 8.527344 5.164062 8.523438 C 5.171875 8.523438 5.191406 8.539062 5.191406 8.546875 C 5.1875 8.589844 5.164062 8.621094 5.121094 8.628906 C 5.113281 8.632812 5.105469 8.613281 5.09375 8.601562 Z M 13.910156 22.765625 C 13.941406 22.773438 13.964844 22.796875 13.96875 22.828125 C 13.96875 22.832031 13.945312 22.855469 13.933594 22.851562 C 13.902344 22.847656 13.878906 22.824219 13.875 22.792969 C 13.875 22.785156 13.898438 22.773438 13.910156 22.765625 Z M 9.398438 20.839844 L 9.398438 20.835938 L 9.414062 20.832031 Z M 2.96875 12.027344 C 2.972656 12.023438 2.972656 12.015625 2.976562 12.007812 C 2.984375 12.019531 2.992188 12.03125 2.996094 12.042969 C 3 12.050781 2.992188 12.058594 2.988281 12.066406 C 2.984375 12.050781 2.976562 12.039062 2.96875 12.027344 Z M 5.730469 8.875 C 5.742188 8.878906 5.765625 8.882812 5.765625 8.886719 C 5.769531 8.910156 5.753906 8.925781 5.730469 8.925781 C 5.71875 8.925781 5.695312 8.921875 5.695312 8.914062 C 5.691406 8.894531 5.710938 8.878906 5.730469 8.875 Z M 15.871094 22.175781 C 15.875 22.179688 15.882812 22.183594 15.882812 22.191406 C 15.882812 22.195312 15.875 22.210938 15.871094 22.210938 C 15.851562 22.203125 15.84375 22.191406 15.855469 22.179688 C 15.859375 22.175781 15.867188 22.175781 15.871094 22.175781 Z M 13.832031 22.761719 C 13.828125 22.769531 13.824219 22.777344 13.820312 22.78125 C 13.8125 22.773438 13.804688 22.765625 13.800781 22.753906 C 13.796875 22.75 13.804688 22.742188 13.8125 22.738281 C 13.816406 22.746094 13.824219 22.753906 13.832031 22.761719 Z M 12.558594 22.234375 C 12.5625 22.238281 12.570312 22.242188 12.570312 22.246094 C 12.570312 22.253906 12.5625 22.265625 12.558594 22.265625 C 12.542969 22.261719 12.535156 22.25 12.546875 22.238281 C 12.546875 22.234375 12.554688 22.238281 12.558594 22.234375 Z M 25.820312 7.824219 C 25.824219 7.816406 25.828125 7.808594 25.828125 7.804688 C 25.835938 7.808594 25.84375 7.808594 25.84375 7.816406 C 25.847656 7.820312 25.839844 7.828125 25.835938 7.832031 C 25.832031 7.828125 25.824219 7.824219 25.820312 7.824219 Z M 4.425781 9.320312 C 4.429688 9.3125 4.433594 9.304688 4.4375 9.300781 C 4.445312 9.300781 4.453125 9.308594 4.457031 9.308594 C 4.453125 9.316406 4.449219 9.324219 4.445312 9.328125 C 4.441406 9.328125 4.433594 9.320312 4.425781 9.320312 Z M 4.425781 9.320312 " fill-opacity="1" fill-rule="nonzero"/></g></g></g></g><g clip-path="url(#9daef9c718)"><g clip-path="url(#6274c0496c)"><g transform="matrix(1, 0, 0, 1, 7, 2)"><g clip-path="url(#9d775f3a71)"><g clip-path="url(#c6707de944)"><g clip-path="url(#6f23fcfb87)"><g clip-path="url(#cfd74647fd)"><path fill="#000000" d="M 17.945312 7.160156 C 17.921875 7.167969 17.894531 7.203125 17.859375 7.203125 L 17.851562 7.1875 C 17.875 7.207031 17.917969 7.132812 17.945312 7.160156 Z M 17.453125 7.28125 C 17.402344 7.238281 17.402344 7.265625 17.355469 7.214844 C 17.316406 7.214844 17.308594 7.230469 17.324219 7.261719 C 17.3125 7.25 17.292969 7.289062 17.265625 7.257812 C 17.28125 7.195312 17.320312 7.179688 17.378906 7.210938 C 17.382812 7.195312 17.371094 7.183594 17.363281 7.175781 C 17.417969 7.191406 17.449219 7.226562 17.453125 7.28125 Z M 16.78125 6.765625 C 16.773438 6.742188 16.765625 6.722656 16.757812 6.703125 C 16.777344 6.746094 16.789062 6.746094 16.78125 6.765625 Z M 17.242188 7.285156 L 17.269531 7.335938 L 17.226562 7.332031 C 17.214844 7.320312 17.210938 7.289062 17.242188 7.285156 Z M 17.261719 8.542969 L 17.21875 8.527344 L 17.242188 8.488281 Z M 15.351562 7.285156 L 15.324219 7.289062 L 15.34375 7.277344 Z M 16.871094 6.796875 Z M 16.808594 6.644531 C 16.8125 6.660156 16.8125 6.675781 16.808594 6.691406 C 16.8125 6.675781 16.8125 6.660156 16.808594 6.644531 Z M 17.15625 7.210938 Z M 15.6875 9.425781 C 15.644531 9.40625 15.636719 9.382812 15.667969 9.34375 C 15.671875 9.375 15.695312 9.40625 15.6875 9.425781 Z M 16.101562 6.777344 L 16.105469 6.789062 L 16.09375 6.796875 L 16.097656 6.78125 Z M 15.589844 6.882812 L 15.582031 6.886719 L 15.582031 6.867188 Z M 17.605469 8.949219 L 17.609375 8.996094 C 17.59375 8.980469 17.582031 8.96875 17.605469 8.949219 Z M 17.640625 8.546875 Z M 17.472656 7.261719 L 17.503906 7.269531 C 17.496094 7.269531 17.488281 7.273438 17.472656 7.261719 Z M 14.457031 7.6875 L 14.453125 7.675781 C 14.597656 7.601562 14.730469 7.621094 14.878906 7.582031 C 14.933594 7.472656 15.15625 7.421875 15.273438 7.324219 C 15.265625 7.335938 15.273438 7.34375 15.285156 7.355469 L 15.304688 7.363281 L 15.320312 7.367188 C 15.320312 7.359375 15.339844 7.371094 15.351562 7.371094 C 15.363281 7.367188 15.363281 7.367188 15.339844 7.34375 C 15.328125 7.332031 15.316406 7.320312 15.308594 7.304688 L 15.316406 7.296875 L 15.429688 7.332031 C 15.410156 7.3125 15.386719 7.292969 15.363281 7.277344 C 15.359375 7.265625 15.355469 7.253906 15.355469 7.238281 L 15.308594 7.15625 C 15.285156 7.128906 15.257812 7.113281 15.222656 7.109375 C 15.21875 7.070312 15.191406 7.035156 15.191406 6.988281 L 15.148438 7.011719 C 15.085938 6.945312 15.035156 6.871094 14.988281 6.792969 L 14.972656 6.835938 C 14.9375 6.777344 15.039062 6.6875 15.003906 6.628906 L 14.9375 6.65625 C 14.867188 6.558594 14.746094 6.492188 14.734375 6.355469 C 14.722656 6.363281 14.707031 6.378906 14.71875 6.398438 C 14.730469 6.417969 14.699219 6.375 14.691406 6.363281 L 14.050781 5.660156 L 14.980469 6.042969 C 15.046875 6.066406 15.140625 6.105469 15.082031 6.164062 C 15.117188 6.113281 15.195312 6.222656 15.238281 6.28125 L 15.253906 6.234375 C 15.273438 6.3125 15.265625 6.324219 15.324219 6.382812 C 15.382812 6.4375 15.351562 6.363281 15.335938 6.355469 C 15.316406 6.347656 15.351562 6.417969 15.421875 6.429688 L 15.414062 6.394531 C 15.46875 6.421875 15.457031 6.433594 15.46875 6.480469 C 15.511719 6.527344 15.558594 6.53125 15.609375 6.496094 C 15.605469 6.519531 15.613281 6.570312 15.648438 6.578125 C 15.683594 6.582031 15.660156 6.550781 15.65625 6.542969 C 15.757812 6.566406 15.761719 6.667969 15.847656 6.664062 L 15.871094 6.652344 C 15.800781 6.605469 15.738281 6.578125 15.746094 6.585938 C 15.75 6.597656 15.828125 6.574219 15.816406 6.496094 C 15.84375 6.550781 15.890625 6.660156 15.957031 6.671875 L 15.972656 6.664062 L 15.964844 6.65625 C 15.980469 6.660156 15.992188 6.667969 16 6.679688 C 16.023438 6.6875 16.035156 6.6875 16.050781 6.699219 C 16.0625 6.710938 16.128906 6.722656 16.160156 6.730469 C 16.191406 6.742188 16.171875 6.789062 16.117188 6.808594 C 16.0625 6.824219 16.117188 6.796875 16.097656 6.78125 L 16.089844 6.773438 L 16.019531 6.726562 C 16.03125 6.757812 16.042969 6.792969 16.085938 6.785156 C 16.085938 6.816406 16.085938 6.84375 16.09375 6.875 L 16.144531 6.855469 L 16.203125 6.84375 C 16.226562 6.835938 16.242188 6.820312 16.25 6.796875 C 16.261719 6.820312 16.28125 6.832031 16.304688 6.835938 C 16.328125 6.847656 16.355469 6.847656 16.402344 6.863281 C 16.453125 6.882812 16.394531 6.824219 16.386719 6.816406 C 16.382812 6.804688 16.367188 6.828125 16.359375 6.820312 L 16.417969 6.785156 C 16.441406 6.757812 16.464844 6.738281 16.496094 6.746094 C 16.527344 6.753906 16.476562 6.710938 16.46875 6.710938 L 16.484375 6.675781 L 16.460938 6.691406 C 16.464844 6.65625 16.472656 6.621094 16.484375 6.585938 L 16.496094 6.539062 L 16.511719 6.492188 L 16.546875 6.414062 L 16.582031 6.339844 L 16.609375 6.273438 L 16.621094 6.226562 L 16.632812 6.183594 C 16.640625 6.144531 16.644531 6.105469 16.644531 6.066406 L 16.648438 5.980469 L 16.644531 5.851562 C 16.65625 5.835938 16.660156 5.820312 16.664062 5.800781 L 16.667969 5.742188 L 16.667969 5.8125 L 16.6875 5.777344 L 16.703125 5.746094 L 16.722656 5.738281 L 16.730469 5.71875 C 16.742188 5.699219 16.746094 5.675781 16.746094 5.652344 C 16.820312 5.816406 16.882812 5.949219 16.953125 6.003906 C 17.023438 6.0625 16.992188 6.125 16.992188 6.222656 L 17.023438 6.160156 C 17.027344 6.214844 17.03125 6.273438 17.03125 6.332031 C 17.03125 6.390625 17.074219 6.417969 17.113281 6.453125 C 17.132812 6.472656 17.152344 6.5 17.164062 6.527344 C 17.179688 6.570312 17.183594 6.617188 17.175781 6.664062 L 17.140625 6.65625 C 17.152344 6.695312 17.160156 6.734375 17.164062 6.769531 C 17.171875 6.8125 17.183594 6.832031 17.195312 6.824219 C 17.210938 6.816406 17.164062 6.847656 17.1875 6.863281 L 17.210938 6.863281 L 17.1875 6.988281 C 17.214844 7.074219 17.289062 6.953125 17.308594 7.089844 C 17.332031 7.226562 17.246094 7.242188 17.222656 7.222656 C 17.226562 7.191406 17.210938 7.175781 17.179688 7.171875 L 17.171875 7.222656 C 17.09375 7.234375 17.011719 7.269531 16.949219 7.171875 L 16.992188 7.097656 L 16.953125 7.074219 L 16.953125 7.136719 C 16.917969 7.109375 16.945312 7.078125 16.964844 7.054688 C 16.945312 7.054688 16.929688 7.046875 16.917969 7.03125 L 16.980469 6.949219 C 16.949219 6.945312 16.929688 6.992188 16.902344 6.945312 C 16.878906 6.902344 16.972656 6.964844 16.992188 6.910156 C 17.011719 6.851562 16.917969 6.894531 16.941406 6.855469 C 16.921875 6.851562 16.910156 6.859375 16.902344 6.875 L 16.910156 6.859375 L 16.917969 6.855469 L 16.921875 6.839844 C 16.921875 6.832031 16.925781 6.824219 16.945312 6.804688 C 16.96875 6.789062 16.921875 6.800781 16.917969 6.789062 C 16.914062 6.78125 16.910156 6.777344 16.882812 6.816406 L 16.902344 6.765625 L 16.917969 6.710938 C 16.886719 6.78125 16.886719 6.769531 16.878906 6.765625 C 16.871094 6.765625 16.871094 6.753906 16.84375 6.839844 C 16.867188 6.769531 16.871094 6.738281 16.863281 6.71875 C 16.859375 6.683594 16.855469 6.648438 16.855469 6.613281 C 16.855469 6.628906 16.855469 6.644531 16.855469 6.65625 C 16.84375 6.691406 16.839844 6.726562 16.839844 6.765625 C 16.847656 6.625 16.839844 6.488281 16.824219 6.351562 C 16.820312 6.425781 16.820312 6.5 16.828125 6.578125 L 16.835938 6.804688 C 16.832031 6.722656 16.832031 6.671875 16.824219 6.628906 C 16.820312 6.585938 16.816406 6.53125 16.8125 6.460938 L 16.8125 6.558594 L 16.820312 6.664062 L 16.8125 6.558594 L 16.808594 6.507812 C 16.816406 6.667969 16.824219 6.765625 16.820312 6.699219 C 16.832031 6.808594 16.832031 6.867188 16.832031 6.867188 C 16.828125 6.769531 16.820312 6.675781 16.804688 6.582031 L 16.828125 6.816406 C 16.820312 6.785156 16.816406 6.753906 16.8125 6.722656 C 16.804688 6.6875 16.804688 6.660156 16.800781 6.667969 C 16.804688 6.6875 16.804688 6.707031 16.8125 6.726562 C 16.808594 6.71875 16.804688 6.710938 16.800781 6.703125 C 16.796875 6.691406 16.792969 6.707031 16.789062 6.714844 C 16.789062 6.722656 16.78125 6.71875 16.761719 6.699219 C 16.742188 6.675781 16.765625 6.714844 16.769531 6.722656 C 16.769531 6.726562 16.734375 6.628906 16.726562 6.601562 C 16.71875 6.574219 16.683594 6.597656 16.710938 6.65625 C 16.738281 6.710938 16.722656 6.65625 16.730469 6.667969 L 16.71875 6.664062 C 16.746094 6.746094 16.734375 6.664062 16.761719 6.71875 L 16.71875 6.722656 C 16.699219 6.734375 16.6875 6.746094 16.683594 6.769531 C 16.730469 6.804688 16.726562 6.726562 16.75 6.792969 L 16.75 6.746094 C 16.804688 6.851562 16.75 6.722656 16.808594 6.835938 C 16.808594 6.851562 16.808594 6.847656 16.800781 6.84375 L 16.785156 6.851562 L 16.78125 6.867188 L 16.769531 6.902344 C 16.726562 6.910156 16.730469 6.878906 16.6875 6.882812 C 16.644531 6.890625 16.644531 6.933594 16.644531 6.960938 C 16.640625 6.988281 16.640625 7.015625 16.644531 7.046875 C 16.644531 7.070312 16.644531 7.097656 16.632812 7.121094 C 16.617188 7.152344 16.589844 7.175781 16.550781 7.179688 C 16.523438 7.175781 16.5 7.164062 16.472656 7.15625 C 16.433594 7.152344 16.398438 7.160156 16.367188 7.183594 L 16.417969 7.238281 C 16.367188 7.257812 16.324219 7.246094 16.289062 7.207031 C 16.265625 7.191406 16.25 7.171875 16.167969 7.167969 C 16.183594 7.1875 16.207031 7.203125 16.230469 7.210938 C 16.257812 7.21875 16.273438 7.222656 16.261719 7.226562 C 16.246094 7.226562 16.183594 7.222656 16.175781 7.203125 C 16.164062 7.171875 16.148438 7.152344 16.121094 7.136719 L 16.078125 7.179688 C 16.070312 7.175781 16.0625 7.171875 16.054688 7.160156 L 16.035156 7.152344 L 16.003906 7.125 C 15.984375 7.105469 15.960938 7.085938 15.941406 7.0625 C 15.898438 7.023438 15.855469 6.988281 15.808594 6.953125 C 15.800781 6.96875 15.8125 6.996094 15.777344 6.996094 C 15.710938 6.941406 15.640625 6.898438 15.558594 6.871094 C 15.550781 6.890625 15.542969 6.921875 15.554688 6.941406 L 15.597656 6.917969 L 15.589844 7 L 15.660156 6.992188 C 15.664062 7.007812 15.667969 7.023438 15.671875 7.035156 C 15.65625 7.019531 15.628906 7.015625 15.621094 7.027344 C 15.621094 7.035156 15.625 7.046875 15.632812 7.054688 C 15.632812 7.058594 15.648438 7.074219 15.65625 7.085938 L 15.71875 7.152344 C 15.765625 7.183594 15.800781 7.222656 15.816406 7.21875 C 15.835938 7.304688 15.828125 7.382812 15.792969 7.460938 C 15.8125 7.453125 15.828125 7.4375 15.832031 7.417969 C 15.816406 7.453125 15.824219 7.460938 15.835938 7.46875 C 15.847656 7.476562 15.847656 7.480469 15.847656 7.488281 C 15.839844 7.507812 15.828125 7.523438 15.808594 7.535156 C 15.804688 7.519531 15.777344 7.535156 15.765625 7.527344 C 15.757812 7.574219 15.734375 7.609375 15.695312 7.632812 C 15.644531 7.667969 15.589844 7.695312 15.53125 7.714844 L 15.566406 7.734375 L 15.453125 7.796875 L 15.386719 7.824219 C 15.417969 7.820312 15.445312 7.828125 15.472656 7.84375 L 15.46875 7.847656 L 15.488281 7.847656 L 15.496094 7.84375 L 15.511719 7.847656 L 15.566406 7.855469 L 15.667969 7.867188 C 15.71875 7.863281 15.710938 7.859375 15.695312 7.847656 C 15.683594 7.835938 15.660156 7.828125 15.707031 7.808594 C 15.804688 7.824219 15.898438 7.824219 15.996094 7.804688 C 16.007812 7.902344 16 8.003906 15.976562 8.101562 C 15.992188 8.117188 16.003906 8.136719 16.011719 8.15625 C 16.019531 8.183594 16.027344 8.210938 16.023438 8.242188 C 16.03125 8.273438 16.03125 8.308594 16.03125 8.339844 L 16.027344 8.402344 C 16.015625 8.464844 16.015625 8.527344 16.023438 8.589844 L 16.015625 8.574219 L 16.023438 8.550781 C 16.027344 8.574219 16.03125 8.59375 16.035156 8.617188 L 16.027344 8.621094 L 16.039062 8.636719 C 16.039062 8.628906 16.039062 8.621094 16.035156 8.617188 C 16.050781 8.609375 16.0625 8.597656 16.070312 8.578125 L 16.089844 8.507812 C 16.101562 8.453125 16.117188 8.414062 16.15625 8.433594 C 16.191406 8.449219 16.128906 8.351562 16.160156 8.285156 C 16.1875 8.238281 16.222656 8.199219 16.269531 8.167969 C 16.238281 8.164062 16.289062 8.082031 16.261719 8.074219 C 16.277344 8.039062 16.304688 8.011719 16.332031 7.988281 C 16.359375 7.972656 16.367188 7.988281 16.371094 8.015625 L 16.378906 8.011719 C 16.429688 8.007812 16.507812 8.101562 16.566406 8.164062 C 16.621094 8.230469 16.660156 8.277344 16.71875 8.25 L 16.796875 8.332031 L 16.832031 8.394531 C 16.855469 8.425781 16.886719 8.453125 16.90625 8.480469 C 16.929688 8.507812 17.007812 8.589844 17.066406 8.640625 C 17.105469 8.574219 16.941406 8.539062 16.992188 8.476562 C 17.085938 8.585938 17.109375 8.683594 17.234375 8.746094 C 17.269531 8.757812 17.238281 8.707031 17.234375 8.6875 C 17.3125 8.773438 17.417969 8.816406 17.492188 8.882812 C 17.472656 8.84375 17.441406 8.800781 17.460938 8.765625 C 17.453125 8.785156 17.441406 8.796875 17.421875 8.800781 L 17.441406 8.757812 C 17.414062 8.742188 17.40625 8.742188 17.386719 8.761719 C 17.328125 8.699219 17.464844 8.738281 17.382812 8.675781 C 17.382812 8.6875 17.375 8.683594 17.378906 8.703125 C 17.3125 8.632812 17.292969 8.53125 17.230469 8.464844 C 17.164062 8.398438 17.257812 8.539062 17.195312 8.542969 C 17.164062 8.480469 17.136719 8.414062 17.121094 8.34375 C 17.109375 8.3125 17.097656 8.28125 17.082031 8.25 C 17.078125 8.234375 17.070312 8.214844 17.058594 8.199219 C 17.046875 8.179688 17.035156 8.164062 17.023438 8.148438 L 17.046875 8.167969 C 17.085938 8.144531 17.0625 8.125 17.023438 8.097656 C 16.988281 8.066406 16.9375 8.023438 16.941406 7.996094 C 16.945312 7.96875 16.894531 8.007812 16.902344 8.007812 L 16.84375 7.90625 C 16.839844 7.890625 16.832031 7.875 16.828125 7.859375 C 16.824219 7.847656 16.820312 7.839844 16.820312 7.832031 L 16.816406 7.820312 L 16.824219 7.816406 L 17.058594 7.792969 L 17.015625 7.785156 C 17.050781 7.761719 17.085938 7.746094 17.128906 7.734375 C 17.171875 7.722656 17.214844 7.707031 17.253906 7.683594 C 17.277344 7.699219 17.304688 7.691406 17.296875 7.726562 C 17.355469 7.632812 17.429688 7.625 17.507812 7.605469 C 17.585938 7.585938 17.667969 7.578125 17.703125 7.492188 C 17.683594 7.503906 17.652344 7.496094 17.667969 7.488281 L 17.785156 7.445312 C 17.796875 7.484375 17.78125 7.472656 17.773438 7.515625 C 17.808594 7.527344 17.839844 7.523438 17.871094 7.503906 C 17.804688 7.511719 17.832031 7.449219 17.84375 7.421875 C 17.851562 7.390625 17.859375 7.4375 17.867188 7.453125 C 17.882812 7.351562 17.921875 7.511719 17.964844 7.421875 L 17.953125 7.402344 C 17.992188 7.402344 18.027344 7.390625 18.058594 7.367188 C 18.046875 7.324219 18.015625 7.371094 17.992188 7.339844 C 17.964844 7.308594 18.125 7.347656 18.132812 7.285156 C 18.144531 7.222656 18.082031 7.308594 18.058594 7.308594 C 18.03125 7.3125 18.078125 7.246094 18.101562 7.214844 L 18.09375 7.21875 L 18.128906 7.164062 C 18.117188 7.164062 18.105469 7.160156 18.097656 7.15625 C 18.089844 7.15625 17.96875 7.089844 17.867188 7.078125 C 17.761719 7.066406 17.902344 7.132812 17.902344 7.132812 C 17.863281 7.160156 17.816406 7.171875 17.765625 7.164062 C 17.777344 7.171875 17.773438 7.1875 17.765625 7.207031 C 17.753906 7.222656 17.722656 7.15625 17.679688 7.191406 C 17.695312 7.214844 17.714844 7.234375 17.738281 7.246094 C 17.6875 7.242188 17.632812 7.222656 17.585938 7.222656 C 17.542969 7.222656 17.625 7.253906 17.644531 7.269531 C 17.664062 7.28125 17.503906 7.285156 17.472656 7.242188 L 17.5 7.226562 C 17.5 7.242188 17.511719 7.265625 17.527344 7.265625 C 17.539062 7.265625 17.585938 7.234375 17.582031 7.21875 L 17.546875 7.214844 C 17.554688 7.113281 17.679688 7.195312 17.746094 7.175781 L 17.707031 7.109375 L 17.792969 7.152344 C 17.800781 7.132812 17.804688 7.09375 17.769531 7.085938 C 17.730469 7.082031 17.816406 7.105469 17.847656 7.054688 C 17.875 7.003906 17.847656 7.046875 17.847656 7.042969 L 17.898438 7.058594 C 17.886719 7.046875 17.898438 7.007812 17.867188 7.023438 C 17.949219 6.964844 18.015625 7.046875 18.042969 6.988281 L 18.035156 6.992188 C 18.15625 7 18.050781 7.042969 18.152344 7.089844 L 18.195312 6.953125 L 18.214844 7.007812 C 18.230469 7 18.25 6.992188 18.246094 6.976562 C 18.242188 6.957031 18.242188 6.996094 18.269531 7.027344 L 18.300781 7.007812 C 18.300781 6.996094 18.296875 6.984375 18.289062 6.980469 C 18.28125 6.980469 18.324219 6.96875 18.332031 6.953125 L 18.28125 6.960938 C 18.296875 6.945312 18.3125 6.917969 18.273438 6.914062 C 18.363281 6.863281 18.277344 6.9375 18.332031 6.945312 C 18.339844 6.933594 18.347656 6.925781 18.359375 6.917969 L 18.371094 6.941406 L 18.402344 6.996094 C 18.4375 7.003906 18.453125 6.988281 18.449219 6.949219 C 18.476562 6.988281 18.394531 6.980469 18.460938 7.007812 C 18.460938 6.996094 18.460938 6.988281 18.46875 6.976562 L 18.484375 6.957031 L 18.496094 7.039062 C 18.5 7.070312 18.46875 7.066406 18.441406 7.085938 L 18.460938 7.125 C 18.46875 7.121094 18.476562 7.121094 18.46875 7.136719 L 18.476562 7.148438 C 18.453125 7.136719 18.433594 7.140625 18.417969 7.160156 L 18.425781 7.171875 L 18.417969 7.175781 C 18.402344 7.203125 18.398438 7.25 18.371094 7.257812 C 18.34375 7.269531 18.277344 7.3125 18.207031 7.347656 C 18.136719 7.382812 18.105469 7.464844 18.058594 7.527344 L 18.066406 7.527344 C 18.015625 7.484375 17.960938 7.539062 17.90625 7.558594 C 17.925781 7.582031 17.949219 7.59375 17.980469 7.59375 L 17.9375 7.617188 C 17.914062 7.605469 17.898438 7.609375 17.867188 7.621094 L 17.898438 7.652344 C 17.839844 7.6875 17.75 7.675781 17.683594 7.742188 C 17.660156 7.703125 17.6875 7.605469 17.597656 7.617188 C 17.507812 7.628906 17.621094 7.675781 17.644531 7.675781 C 17.671875 7.675781 17.613281 7.675781 17.601562 7.6875 L 17.652344 7.710938 C 17.625 7.738281 17.617188 7.683594 17.589844 7.707031 C 17.566406 7.726562 17.582031 7.730469 17.59375 7.757812 C 17.609375 7.78125 17.613281 7.734375 17.632812 7.742188 C 17.597656 7.761719 17.574219 7.789062 17.5625 7.828125 C 17.558594 7.808594 17.546875 7.785156 17.519531 7.792969 C 17.492188 7.804688 17.511719 7.839844 17.484375 7.871094 C 17.457031 7.898438 17.425781 7.890625 17.40625 7.84375 C 17.386719 7.796875 17.390625 7.878906 17.386719 7.894531 L 17.324219 7.898438 C 17.304688 7.894531 17.28125 7.898438 17.277344 7.867188 L 17.28125 7.863281 C 17.277344 7.867188 17.273438 7.867188 17.273438 7.863281 C 17.242188 7.863281 17.207031 7.867188 17.179688 7.878906 L 17.113281 7.914062 C 17.105469 7.914062 17.125 7.929688 17.125 7.933594 L 17.140625 7.957031 C 17.148438 7.96875 17.15625 7.984375 17.164062 7.996094 L 17.183594 8.003906 C 17.179688 8.019531 17.195312 8.042969 17.203125 8.066406 C 17.210938 8.089844 17.210938 8.117188 17.207031 8.140625 C 17.207031 8.144531 17.222656 8.148438 17.234375 8.148438 C 17.25 8.152344 17.261719 8.152344 17.269531 8.140625 C 17.285156 8.191406 17.269531 8.207031 17.335938 8.253906 C 17.328125 8.199219 17.363281 8.257812 17.320312 8.199219 C 17.371094 8.246094 17.402344 8.25 17.398438 8.335938 C 17.425781 8.289062 17.472656 8.34375 17.476562 8.378906 L 17.425781 8.359375 C 17.441406 8.386719 17.460938 8.410156 17.484375 8.433594 L 17.519531 8.394531 C 17.648438 8.464844 17.5625 8.664062 17.714844 8.679688 C 17.703125 8.730469 17.648438 8.632812 17.632812 8.6875 C 17.621094 8.738281 17.78125 8.738281 17.789062 8.753906 C 17.796875 8.765625 17.769531 8.867188 17.839844 8.921875 C 17.824219 8.925781 17.773438 8.949219 17.796875 9.019531 C 17.824219 9.089844 17.914062 9.023438 17.902344 8.984375 C 17.894531 8.945312 17.882812 8.972656 17.875 8.972656 C 17.871094 8.976562 17.863281 8.925781 17.890625 8.933594 L 17.882812 8.953125 C 17.917969 8.964844 17.96875 9.03125 17.980469 9 C 17.996094 8.964844 17.96875 9.03125 17.9375 9.011719 C 18.015625 9.058594 18.019531 9.105469 18.085938 9.160156 C 18.070312 9.15625 18.042969 9.164062 18.054688 9.171875 C 18.148438 9.246094 18.058594 9.238281 18.105469 9.304688 L 18.125 9.304688 L 18.351562 9.285156 L 18.003906 9.457031 C 17.976562 9.476562 18 9.519531 17.941406 9.460938 C 17.882812 9.40625 17.910156 9.507812 17.914062 9.527344 C 17.863281 9.460938 17.78125 9.484375 17.734375 9.472656 L 17.765625 9.503906 C 17.75 9.488281 17.730469 9.472656 17.710938 9.464844 L 17.734375 9.449219 C 17.710938 9.445312 17.695312 9.433594 17.683594 9.449219 C 17.671875 9.460938 17.730469 9.398438 17.707031 9.34375 C 17.679688 9.289062 17.632812 9.273438 17.597656 9.316406 C 17.691406 9.351562 17.558594 9.355469 17.632812 9.40625 C 17.617188 9.394531 17.597656 9.382812 17.578125 9.378906 C 17.574219 9.382812 17.578125 9.390625 17.582031 9.394531 C 17.472656 9.386719 17.570312 9.324219 17.484375 9.269531 C 17.476562 9.304688 17.433594 9.3125 17.425781 9.296875 C 17.417969 9.28125 17.464844 9.261719 17.441406 9.222656 C 17.421875 9.183594 17.394531 9.171875 17.367188 9.15625 L 17.40625 9.167969 C 17.40625 9.140625 17.378906 9.125 17.347656 9.089844 C 17.316406 9.054688 17.34375 9.105469 17.347656 9.109375 C 17.347656 9.113281 17.226562 9.105469 17.191406 9.042969 C 17.15625 8.980469 17.15625 9.085938 17.125 9.085938 C 17.09375 9.085938 17.035156 9.074219 16.984375 9 C 17.027344 8.980469 17.023438 8.988281 17 8.925781 L 17.09375 9.027344 L 17.054688 8.925781 C 17.085938 8.953125 17.113281 8.996094 17.136719 9.003906 C 17.160156 9.007812 17.117188 8.96875 17.152344 8.949219 C 17.070312 8.96875 17.078125 8.859375 17.007812 8.855469 L 16.949219 8.941406 C 16.847656 8.917969 16.84375 8.796875 16.726562 8.746094 L 16.773438 8.753906 C 16.78125 8.707031 16.710938 8.703125 16.6875 8.664062 C 16.667969 8.625 16.644531 8.6875 16.613281 8.691406 C 16.585938 8.695312 16.621094 8.683594 16.609375 8.675781 C 16.605469 8.667969 16.601562 8.664062 16.59375 8.660156 C 16.585938 8.644531 16.582031 8.625 16.597656 8.59375 L 16.550781 8.617188 C 16.539062 8.613281 16.53125 8.585938 16.519531 8.539062 C 16.515625 8.5 16.496094 8.464844 16.464844 8.433594 C 16.476562 8.457031 16.480469 8.484375 16.484375 8.507812 L 16.503906 8.582031 C 16.492188 8.574219 16.484375 8.5625 16.484375 8.546875 L 16.453125 8.488281 C 16.453125 8.492188 16.449219 8.496094 16.445312 8.484375 L 16.4375 8.476562 C 16.429688 8.46875 16.414062 8.46875 16.417969 8.496094 C 16.417969 8.519531 16.386719 8.441406 16.375 8.46875 L 16.386719 8.488281 C 16.375 8.46875 16.351562 8.492188 16.339844 8.4375 C 16.347656 8.46875 16.347656 8.503906 16.34375 8.535156 C 16.34375 8.558594 16.339844 8.582031 16.332031 8.601562 L 16.3125 8.632812 L 16.308594 8.675781 C 16.300781 8.707031 16.304688 8.734375 16.324219 8.761719 C 16.296875 8.828125 16.273438 8.894531 16.257812 8.960938 C 16.269531 8.960938 16.273438 8.964844 16.273438 8.953125 C 16.285156 9.042969 16.167969 8.988281 16.179688 9.089844 C 16.195312 9.191406 16.222656 9.046875 16.234375 9.078125 C 16.246094 9.113281 16.273438 9.128906 16.257812 9.164062 C 16.238281 9.199219 16.214844 9.238281 16.242188 9.28125 L 16.25 9.265625 C 16.257812 9.300781 16.242188 9.328125 16.214844 9.363281 C 16.183594 9.394531 16.160156 9.429688 16.140625 9.46875 C 16.148438 9.46875 16.152344 9.472656 16.15625 9.480469 C 16.101562 9.511719 16.050781 9.554688 16.003906 9.605469 C 16.003906 9.625 16.011719 9.640625 16.023438 9.652344 L 15.972656 9.636719 L 15.941406 9.65625 C 15.992188 9.664062 15.984375 9.636719 16.007812 9.679688 C 16.035156 9.726562 15.960938 9.632812 15.898438 9.679688 C 15.835938 9.730469 15.890625 9.722656 15.890625 9.75 L 15.882812 9.8125 L 15.761719 9.699219 C 15.75 9.683594 15.730469 9.671875 15.710938 9.671875 L 15.710938 9.703125 L 15.726562 9.980469 L 15.921875 9.78125 L 15.953125 9.753906 C 15.957031 9.769531 15.957031 9.789062 15.941406 9.804688 L 15.730469 10.042969 L 15.683594 9.703125 C 15.675781 9.675781 15.703125 9.644531 15.691406 9.617188 L 15.667969 9.628906 C 15.667969 9.59375 15.679688 9.5625 15.695312 9.53125 L 15.691406 9.519531 L 15.699219 9.515625 C 15.714844 9.480469 15.722656 9.445312 15.714844 9.410156 L 15.738281 9.421875 C 15.796875 9.355469 15.695312 9.375 15.742188 9.308594 L 15.675781 9.289062 C 15.699219 9.21875 15.722656 9.148438 15.742188 9.078125 C 15.691406 9.117188 15.671875 9.207031 15.644531 9.261719 C 15.617188 9.316406 15.640625 9.121094 15.675781 9.101562 C 15.710938 9.082031 15.652344 9.140625 15.660156 9.15625 C 15.714844 9.101562 15.738281 9.035156 15.730469 8.960938 C 15.605469 8.972656 15.6875 8.75 15.59375 8.695312 C 15.609375 8.625 15.609375 8.550781 15.597656 8.476562 C 15.589844 8.445312 15.585938 8.410156 15.578125 8.367188 L 15.578125 8.308594 L 15.566406 8.285156 C 15.667969 8.304688 15.570312 8.261719 15.671875 8.242188 C 15.769531 8.222656 15.679688 8.203125 15.671875 8.203125 C 15.65625 8.1875 15.632812 8.183594 15.613281 8.1875 C 15.582031 8.203125 15.589844 8.21875 15.566406 8.230469 C 15.542969 8.246094 15.550781 8.234375 15.535156 8.242188 L 15.496094 8.285156 L 15.523438 8.257812 C 15.535156 8.234375 15.535156 8.234375 15.523438 8.242188 L 15.578125 8.191406 C 15.585938 8.160156 15.554688 8.1875 15.535156 8.210938 C 15.515625 8.234375 15.503906 8.257812 15.5 8.230469 L 15.5 8.261719 L 15.496094 8.253906 L 15.484375 8.257812 L 15.464844 8.257812 C 15.40625 8.257812 15.359375 8.238281 15.316406 8.199219 C 15.308594 8.210938 15.292969 8.238281 15.324219 8.246094 C 15.171875 8.261719 14.988281 8.160156 14.871094 8.207031 L 14.886719 8.230469 C 14.855469 8.222656 14.839844 8.179688 14.800781 8.203125 C 14.761719 8.226562 14.808594 8.230469 14.796875 8.230469 C 14.785156 8.230469 14.726562 8.179688 14.691406 8.195312 L 14.71875 8.222656 C 14.613281 8.238281 14.550781 8.191406 14.480469 8.144531 C 14.453125 8.128906 14.425781 8.117188 14.394531 8.105469 L 14.386719 8.125 L 14.347656 7.855469 C 14.339844 7.773438 14.417969 7.71875 14.457031 7.6875 Z M 16.097656 6.722656 L 16.089844 6.726562 L 16.097656 6.703125 C 16.082031 6.6875 16.070312 6.6875 16.0625 6.699219 Z M 15.828125 6.933594 L 15.796875 6.914062 Z M 15.734375 6.871094 C 15.746094 6.859375 15.75 6.84375 15.734375 6.839844 C 15.71875 6.835938 15.703125 6.84375 15.679688 6.84375 C 15.699219 6.851562 15.71875 6.859375 15.734375 6.871094 Z M 18.234375 7.109375 C 18.203125 7.125 18.167969 7.128906 18.132812 7.125 C 18.167969 7.140625 18.203125 7.136719 18.234375 7.109375 Z M 17.527344 8.875 Z M 17.613281 9 L 17.621094 9.011719 C 17.640625 9.011719 17.65625 9.015625 17.667969 8.992188 C 17.648438 8.972656 17.625 8.960938 17.601562 8.957031 C 17.609375 8.914062 17.59375 8.882812 17.558594 8.859375 L 17.539062 8.871094 C 17.558594 8.878906 17.5625 8.890625 17.550781 8.902344 L 17.539062 8.882812 C 17.480469 8.902344 17.566406 9.023438 17.5625 9.046875 C 17.554688 9.066406 17.585938 9 17.613281 9 Z M 16.019531 8.605469 L 15.996094 8.59375 C 15.972656 8.621094 15.996094 8.632812 16.011719 8.648438 Z M 15.972656 8.789062 L 15.976562 8.800781 C 15.976562 8.75 15.984375 8.703125 16.007812 8.660156 C 15.988281 8.648438 15.984375 8.632812 15.972656 8.644531 Z M 15.101562 7.863281 L 15.175781 7.839844 C 15.179688 7.824219 15.175781 7.8125 15.164062 7.800781 C 15.15625 7.789062 15.140625 7.785156 15.125 7.789062 L 15.136719 7.851562 C 15.097656 7.828125 15.164062 7.8125 15.097656 7.792969 C 15.027344 7.777344 15.078125 7.84375 15.101562 7.863281 Z M 17.515625 7.269531 Z M 17.519531 7.273438 C 17.523438 7.273438 17.515625 7.269531 17.515625 7.269531 L 17.53125 7.273438 Z M 17.230469 7.84375 L 17.21875 7.867188 C 17.195312 7.855469 17.214844 7.851562 17.230469 7.84375 Z M 17.25 8.109375 L 17.285156 8.089844 C 17.292969 8.117188 17.269531 8.09375 17.25 8.109375 Z M 17.328125 9.074219 L 17.316406 9.0625 C 17.324219 9.070312 17.339844 9.074219 17.328125 9.074219 Z M 17.339844 9.109375 L 17.316406 9.101562 Z M 17.554688 9.347656 C 17.566406 9.359375 17.558594 9.355469 17.554688 9.347656 Z M 16.421875 8.5 L 16.414062 8.503906 L 16.410156 8.492188 Z M 16.566406 8.65625 Z M 17.234375 7.839844 C 17.234375 7.832031 17.234375 7.832031 17.234375 7.828125 L 17.226562 7.832031 Z M 18.058594 9.128906 C 18.054688 9.125 18.050781 9.121094 18.042969 9.117188 C 18.050781 9.121094 18.058594 9.121094 18.058594 9.128906 Z M 17.839844 8.957031 C 17.828125 8.945312 17.828125 8.9375 17.835938 8.933594 C 17.839844 8.929688 17.84375 8.953125 17.839844 8.957031 Z M 15.632812 8.230469 L 15.582031 8.246094 L 15.632812 8.21875 C 15.644531 8.207031 15.65625 8.1875 15.683594 8.195312 Z M 16.382812 8.707031 L 16.335938 8.683594 C 16.351562 8.664062 16.410156 8.675781 16.382812 8.707031 Z M 15.671875 7.035156 Z M 18.390625 7.171875 C 18.4375 7.144531 18.414062 7.1875 18.421875 7.199219 C 18.425781 7.207031 18.382812 7.207031 18.390625 7.171875 Z M 16.023438 9.664062 L 16.019531 9.65625 Z M 16.0625 9.675781 L 16.027344 9.65625 L 16.074219 9.628906 Z M 16.324219 8.773438 L 16.320312 8.765625 L 16.324219 8.75 Z M 17.832031 7.367188 C 17.828125 7.363281 17.828125 7.355469 17.835938 7.351562 Z M 16.246094 8.035156 Z M 18.085938 7.164062 L 18.105469 7.125 C 18.097656 7.144531 18.09375 7.160156 18.085938 7.164062 Z M 17.523438 7.789062 C 17.527344 7.796875 17.53125 7.804688 17.527344 7.808594 C 17.523438 7.8125 17.527344 7.796875 17.523438 7.789062 Z M 17.757812 7.203125 L 17.746094 7.210938 C 17.742188 7.199219 17.738281 7.195312 17.742188 7.191406 C 17.75 7.1875 17.75 7.203125 17.757812 7.203125 Z M 16.238281 8.046875 L 16.175781 8.160156 Z M 15.820312 7.394531 L 15.832031 7.367188 Z M 17.757812 7.203125 Z M 17.824219 6.996094 L 17.804688 6.996094 Z M 17.886719 7.589844 L 17.898438 7.582031 C 17.90625 7.585938 17.914062 7.589844 17.917969 7.597656 Z M 18.347656 7.25 C 18.339844 7.257812 18.300781 7.226562 18.289062 7.214844 C 18.300781 7.226562 18.316406 7.226562 18.328125 7.21875 Z M 17.746094 7.210938 C 17.734375 7.210938 17.726562 7.210938 17.722656 7.203125 L 17.746094 7.203125 Z M 17.492188 7.171875 Z M 2.003906 8.546875 L 2.027344 8.515625 C 2.035156 8.53125 2.011719 8.539062 2.003906 8.546875 Z M 2.359375 8.285156 C 2.386719 8.277344 2.367188 8.300781 2.378906 8.320312 Z M 0.851562 9.136719 C 0.898438 9.046875 0.859375 9.179688 0.933594 9.128906 L 0.878906 9.171875 C 0.882812 9.152344 0.882812 9.121094 0.851562 9.136719 Z M 1.089844 9.007812 C 1.054688 9.015625 1.074219 8.984375 1.070312 8.972656 C 1.0625 8.964844 1.105469 8.980469 1.089844 9.007812 Z M 6.097656 6.988281 C 6.105469 6.957031 6.132812 6.933594 6.15625 6.953125 C 6.179688 6.972656 6.113281 6.992188 6.097656 6.988281 Z M 2.738281 8.0625 L 2.785156 8.054688 L 2.75 8.0625 Z M 9.207031 6.386719 L 9.246094 6.402344 L 9.234375 6.410156 Z M 5.0625 7.210938 L 5.070312 7.265625 C 5.050781 7.257812 5.03125 7.203125 5.0625 7.210938 Z M 0.636719 9.578125 C 0.632812 9.582031 0.625 9.578125 0.617188 9.570312 L 0.628906 9.5625 Z M 1.992188 8.5625 Z M 3.097656 8 C 3.089844 8 3.082031 7.996094 3.078125 7.992188 C 3.074219 7.988281 3.097656 7.992188 3.097656 8 Z M 1.503906 8.757812 L 1.492188 8.761719 C 1.484375 8.761719 1.480469 8.75 1.472656 8.75 Z M 1.183594 9.003906 C 1.167969 8.988281 1.152344 8.984375 1.148438 8.988281 C 1.140625 8.976562 1.136719 8.964844 1.136719 8.953125 C 1.140625 8.953125 1.167969 8.988281 1.183594 9.003906 Z M 3.269531 7.855469 L 3.257812 7.863281 C 3.261719 7.859375 3.261719 7.855469 3.269531 7.855469 Z M 1.757812 8.605469 Z M 4.449219 7.40625 C 4.445312 7.402344 4.449219 7.394531 4.445312 7.382812 C 4.453125 7.390625 4.453125 7.398438 4.449219 7.40625 Z M 4.800781 7.332031 L 4.808594 7.324219 Z M 3.847656 7.667969 Z M 3.601562 7.660156 C 3.589844 7.660156 3.597656 7.664062 3.601562 7.660156 Z M 0.355469 9.640625 C 0.351562 9.628906 0.347656 9.617188 0.335938 9.605469 C 0.382812 9.621094 0.414062 9.648438 0.433594 9.695312 C 0.390625 9.660156 0.394531 9.683594 0.339844 9.644531 C 0.285156 9.605469 0.320312 9.675781 0.332031 9.695312 C 0.339844 9.714844 0.3125 9.71875 0.285156 9.695312 C 0.257812 9.671875 0.3125 9.628906 0.355469 9.640625 Z M 0.484375 9.671875 Z M 0.488281 9.675781 Z M 11.929688 6.808594 L 11.949219 6.773438 C 11.9375 6.804688 11.992188 6.820312 11.929688 6.808594 Z M 0.269531 9.722656 L 0.3125 9.765625 L 0.277344 9.761719 C 0.261719 9.757812 0.25 9.726562 0.269531 9.722656 Z M 0.449219 9.671875 L 0.472656 9.671875 C 0.46875 9.675781 0.460938 9.683594 0.449219 9.671875 Z M 11.230469 6.4375 C 11.234375 6.4375 11.234375 6.4375 11.238281 6.441406 L 11.230469 6.445312 L 11.222656 6.4375 Z M 0.554688 9.613281 C 0.515625 9.621094 0.449219 9.644531 0.417969 9.613281 L 0.429688 9.59375 C 0.433594 9.609375 0.445312 9.621094 0.460938 9.628906 C 0.511719 9.636719 0.496094 9.585938 0.488281 9.574219 L 0.460938 9.574219 C 0.429688 9.484375 0.554688 9.535156 0.597656 9.503906 L 0.539062 9.453125 L 0.617188 9.472656 C 0.613281 9.453125 0.597656 9.417969 0.574219 9.417969 C 0.550781 9.421875 0.613281 9.421875 0.621094 9.375 C 0.625 9.324219 0.621094 9.367188 0.613281 9.363281 L 0.660156 9.363281 C 0.640625 9.355469 0.632812 9.320312 0.621094 9.339844 C 0.65625 9.269531 0.734375 9.328125 0.730469 9.273438 L 0.722656 9.273438 C 0.816406 9.242188 0.757812 9.3125 0.851562 9.324219 L 0.820312 9.195312 L 0.855469 9.230469 C 0.867188 9.226562 0.878906 9.214844 0.863281 9.203125 C 0.851562 9.191406 0.871094 9.222656 0.902344 9.238281 C 0.9375 9.25 1.023438 9.195312 0.984375 9.117188 C 1.019531 9.144531 0.96875 9.167969 1.019531 9.167969 C 0.992188 9.082031 1.074219 9.152344 1.089844 9.097656 C 1.105469 9.042969 1.035156 9.105469 1.054688 9.046875 C 1.113281 9.105469 1.113281 8.992188 1.152344 8.992188 C 1.1875 8.988281 1.226562 8.972656 1.289062 8.964844 C 1.355469 8.953125 1.367188 8.882812 1.40625 8.832031 C 1.441406 8.882812 1.484375 8.847656 1.523438 8.835938 C 1.5625 8.828125 1.492188 8.796875 1.464844 8.792969 L 1.5 8.773438 C 1.511719 8.785156 1.527344 8.789062 1.558594 8.785156 L 1.523438 8.746094 C 1.570312 8.726562 1.636719 8.746094 1.683594 8.6875 C 1.726562 8.628906 1.691406 8.816406 1.769531 8.8125 C 1.84375 8.808594 1.746094 8.75 1.71875 8.75 C 1.695312 8.75 1.75 8.757812 1.753906 8.742188 L 1.714844 8.71875 C 1.730469 8.691406 1.742188 8.742188 1.761719 8.734375 C 1.78125 8.722656 1.769531 8.703125 1.75 8.679688 C 1.730469 8.660156 1.738281 8.703125 1.726562 8.695312 C 1.753906 8.675781 1.765625 8.648438 1.765625 8.613281 C 1.769531 8.636719 1.78125 8.65625 1.804688 8.648438 C 1.828125 8.644531 1.800781 8.605469 1.824219 8.582031 C 1.847656 8.554688 1.863281 8.558594 1.882812 8.605469 C 1.902344 8.652344 1.890625 8.574219 1.886719 8.558594 C 1.882812 8.539062 2.003906 8.511719 2 8.570312 L 1.992188 8.574219 C 2.09375 8.574219 2.140625 8.464844 2.226562 8.449219 L 2.21875 8.433594 C 2.273438 8.425781 2.328125 8.390625 2.378906 8.40625 C 2.394531 8.386719 2.394531 8.367188 2.375 8.347656 C 2.417969 8.34375 2.433594 8.355469 2.46875 8.308594 C 2.417969 8.296875 2.472656 8.28125 2.425781 8.308594 C 2.464844 8.273438 2.464844 8.238281 2.53125 8.257812 C 2.5 8.234375 2.542969 8.199219 2.570312 8.199219 L 2.554688 8.238281 C 2.578125 8.234375 2.601562 8.222656 2.621094 8.207031 L 2.59375 8.160156 C 2.65625 8.058594 2.8125 8.191406 2.835938 8.054688 C 2.878906 8.082031 2.792969 8.101562 2.835938 8.136719 C 2.882812 8.167969 2.890625 8.015625 2.902344 8.007812 C 2.910156 8.003906 2.996094 8.058594 3.042969 8.011719 C 3.042969 8.058594 3.0625 8.082031 3.113281 8.082031 C 3.152344 8.050781 3.132812 7.980469 3.097656 7.980469 C 3.066406 7.980469 3.082031 7.988281 3.085938 7.992188 C 3.089844 8 3.050781 7.996094 3.058594 7.96875 L 3.070312 7.984375 C 3.078125 7.957031 3.144531 7.933594 3.113281 7.90625 C 3.085938 7.878906 3.144531 7.933594 3.121094 7.953125 C 3.167969 7.902344 3.207031 7.910156 3.261719 7.871094 C 3.320312 7.835938 3.253906 7.910156 3.261719 7.90625 C 3.273438 7.898438 3.320312 7.925781 3.375 7.910156 C 3.433594 7.898438 3.339844 7.847656 3.40625 7.847656 C 3.472656 7.851562 3.394531 7.796875 3.378906 7.789062 C 3.359375 7.777344 3.464844 7.726562 3.492188 7.707031 L 3.457031 7.703125 C 3.476562 7.703125 3.492188 7.703125 3.511719 7.691406 L 3.511719 7.738281 C 3.523438 7.726562 3.535156 7.714844 3.527344 7.703125 C 3.519531 7.6875 3.542969 7.769531 3.585938 7.792969 C 3.628906 7.8125 3.660156 7.789062 3.648438 7.730469 C 3.589844 7.777344 3.636719 7.679688 3.574219 7.695312 C 3.59375 7.695312 3.605469 7.691406 3.617188 7.675781 C 3.621094 7.667969 3.613281 7.667969 3.605469 7.664062 C 3.597656 7.664062 3.65625 7.710938 3.730469 7.683594 C 3.710938 7.65625 3.722656 7.621094 3.738281 7.625 C 3.753906 7.632812 3.742188 7.675781 3.773438 7.691406 C 3.808594 7.703125 3.828125 7.683594 3.847656 7.671875 L 3.824219 7.6875 C 3.847656 7.714844 3.867188 7.703125 3.902344 7.695312 C 3.898438 7.691406 3.894531 7.6875 3.886719 7.683594 C 3.925781 7.695312 3.9375 7.601562 3.992188 7.609375 C 4.050781 7.617188 3.980469 7.558594 3.992188 7.539062 C 4.007812 7.519531 4.035156 7.480469 4.105469 7.488281 C 4.101562 7.535156 4.09375 7.527344 4.148438 7.546875 L 4.046875 7.554688 L 4.125 7.585938 C 4.097656 7.597656 4.058594 7.585938 4.039062 7.597656 C 4.019531 7.609375 4.078125 7.609375 4.070312 7.644531 C 4.066406 7.679688 4.160156 7.652344 4.195312 7.597656 L 4.152344 7.503906 C 4.207031 7.441406 4.296875 7.515625 4.371094 7.457031 L 4.347656 7.484375 C 4.375 7.519531 4.40625 7.472656 4.441406 7.476562 C 4.476562 7.480469 4.441406 7.429688 4.449219 7.40625 C 4.453125 7.386719 4.507812 7.378906 4.539062 7.441406 L 4.566406 7.386719 C 4.628906 7.351562 4.675781 7.453125 4.738281 7.417969 C 4.800781 7.378906 4.730469 7.355469 4.679688 7.347656 C 4.628906 7.335938 4.71875 7.324219 4.722656 7.347656 C 4.730469 7.371094 4.800781 7.367188 4.8125 7.335938 C 4.828125 7.300781 4.84375 7.375 4.863281 7.363281 C 4.863281 7.359375 4.863281 7.351562 4.859375 7.347656 C 4.863281 7.363281 4.910156 7.355469 4.894531 7.398438 C 4.9375 7.277344 5.09375 7.347656 5.132812 7.242188 C 5.1875 7.242188 5.238281 7.234375 5.292969 7.222656 C 5.289062 7.210938 5.289062 7.203125 5.285156 7.214844 C 5.277344 7.226562 5.347656 7.292969 5.40625 7.242188 C 5.46875 7.1875 5.363281 7.21875 5.382812 7.195312 C 5.359375 7.085938 5.46875 7.1875 5.5 7.109375 L 5.492188 7.113281 C 5.515625 7.070312 5.589844 7.128906 5.652344 7.101562 L 5.644531 7.085938 C 5.699219 7.125 5.78125 7.125 5.847656 7.125 C 5.914062 7.125 5.8125 7.113281 5.8125 7.066406 C 5.8125 7.019531 5.824219 7.140625 5.878906 7.132812 C 5.933594 7.128906 5.925781 7.082031 5.917969 7.035156 L 5.863281 7.042969 C 5.878906 6.976562 5.929688 7.03125 5.957031 7.011719 L 5.941406 6.988281 C 6.023438 6.980469 6.039062 7.042969 6.125 7.019531 L 6.117188 7.042969 C 6.175781 7.089844 6.148438 6.992188 6.203125 7.03125 L 6.199219 6.960938 C 6.253906 6.980469 6.3125 6.996094 6.371094 7 C 6.324219 6.96875 6.273438 6.945312 6.214844 6.933594 C 6.25 6.921875 6.320312 6.914062 6.34375 6.9375 C 6.363281 6.964844 6.308594 6.925781 6.300781 6.9375 C 6.34375 6.980469 6.394531 6.996094 6.457031 6.976562 C 6.417969 6.855469 6.597656 6.910156 6.621094 6.804688 C 6.734375 6.832031 6.828125 6.746094 6.949219 6.726562 C 6.925781 6.835938 6.984375 6.726562 7 6.828125 C 7.011719 6.929688 7.035156 6.828125 7.039062 6.820312 L 7.109375 6.738281 C 7.121094 6.707031 7.082031 6.722656 7.078125 6.699219 C 7.078125 6.671875 7.097656 6.648438 7.128906 6.617188 C 7.164062 6.585938 7.164062 6.664062 7.195312 6.644531 L 7.152344 6.703125 C 7.25 6.738281 7.210938 6.601562 7.308594 6.636719 L 7.277344 6.613281 C 7.300781 6.617188 7.34375 6.605469 7.382812 6.609375 C 7.433594 6.601562 7.472656 6.621094 7.503906 6.65625 C 7.507812 6.640625 7.511719 6.613281 7.488281 6.613281 C 7.597656 6.582031 7.746094 6.660156 7.820312 6.597656 L 7.804688 6.574219 C 7.828125 6.582031 7.851562 6.621094 7.871094 6.589844 C 7.890625 6.558594 7.855469 6.5625 7.871094 6.5625 C 7.882812 6.5625 7.925781 6.59375 7.953125 6.582031 L 7.925781 6.558594 C 8.023438 6.507812 8.097656 6.601562 8.183594 6.601562 C 8.175781 6.53125 8.257812 6.492188 8.292969 6.476562 L 8.296875 6.472656 C 8.417969 6.449219 8.515625 6.511719 8.628906 6.53125 C 8.6875 6.445312 8.867188 6.472656 8.972656 6.417969 C 8.960938 6.429688 8.980469 6.46875 9 6.480469 C 9.019531 6.488281 9.078125 6.523438 9.070312 6.453125 L 9.058594 6.457031 C 9.078125 6.390625 9.128906 6.398438 9.171875 6.394531 L 9.1875 6.480469 C 9.289062 6.347656 9.484375 6.511719 9.535156 6.398438 C 9.566406 6.414062 9.597656 6.414062 9.628906 6.4375 L 9.621094 6.390625 C 9.691406 6.371094 9.757812 6.363281 9.828125 6.367188 L 9.808594 6.332031 C 9.867188 6.328125 9.886719 6.464844 9.933594 6.46875 L 9.945312 6.398438 C 10.039062 6.390625 10.128906 6.332031 10.21875 6.390625 C 10.214844 6.386719 10.214844 6.359375 10.199219 6.355469 C 10.183594 6.351562 10.363281 6.304688 10.351562 6.40625 C 10.355469 6.34375 10.445312 6.402344 10.492188 6.425781 L 10.484375 6.378906 C 10.527344 6.441406 10.53125 6.457031 10.589844 6.46875 C 10.648438 6.480469 10.597656 6.445312 10.585938 6.445312 C 10.574219 6.445312 10.621094 6.492188 10.671875 6.46875 L 10.652344 6.433594 C 10.695312 6.433594 10.691406 6.449219 10.71875 6.484375 C 10.773438 6.5 10.804688 6.480469 10.816406 6.429688 C 10.824219 6.453125 10.851562 6.488281 10.875 6.472656 C 10.878906 6.464844 10.875 6.453125 10.867188 6.445312 C 10.945312 6.414062 10.984375 6.503906 11.035156 6.460938 L 11.042969 6.429688 C 11.007812 6.425781 10.972656 6.429688 10.9375 6.433594 C 10.9375 6.390625 10.992188 6.382812 10.949219 6.320312 C 10.988281 6.355469 11.058594 6.433594 11.105469 6.414062 L 11.121094 6.40625 L 11.117188 6.394531 C 11.132812 6.390625 11.140625 6.394531 11.144531 6.402344 L 11.191406 6.390625 C 11.195312 6.355469 11.246094 6.378906 11.273438 6.375 C 11.296875 6.375 11.304688 6.417969 11.273438 6.453125 C 11.242188 6.492188 11.265625 6.445312 11.25 6.449219 L 11.234375 6.421875 L 11.171875 6.414062 C 11.195312 6.441406 11.210938 6.460938 11.242188 6.433594 C 11.25 6.460938 11.261719 6.488281 11.273438 6.511719 C 11.308594 6.453125 11.378906 6.414062 11.386719 6.375 C 11.464844 6.402344 11.570312 6.398438 11.613281 6.492188 C 11.652344 6.585938 11.640625 6.464844 11.648438 6.453125 C 11.652344 6.441406 11.621094 6.441406 11.617188 6.433594 C 11.609375 6.421875 11.746094 6.441406 11.75 6.511719 C 11.808594 6.484375 11.722656 6.449219 11.796875 6.464844 L 11.785156 6.445312 C 11.941406 6.355469 12.011719 6.625 12.1875 6.511719 L 12.164062 6.527344 C 12.257812 6.515625 12.355469 6.519531 12.449219 6.542969 C 12.546875 6.570312 12.640625 6.570312 12.738281 6.546875 C 12.792969 6.535156 12.792969 6.574219 12.824219 6.609375 L 12.839844 6.558594 L 12.878906 6.628906 C 12.957031 6.679688 13.035156 6.519531 13.117188 6.613281 L 13.101562 6.652344 C 13.136719 6.648438 13.210938 6.683594 13.210938 6.640625 C 13.210938 6.59375 13.214844 6.683594 13.234375 6.664062 L 13.234375 6.636719 L 13.320312 6.695312 C 13.386719 6.6875 13.324219 6.585938 13.421875 6.597656 C 13.515625 6.605469 13.511719 6.6875 13.5 6.703125 C 13.472656 6.703125 13.457031 6.714844 13.449219 6.742188 L 13.480469 6.757812 C 13.480469 6.835938 13.488281 6.921875 13.402344 6.964844 L 13.351562 6.910156 L 13.328125 6.941406 L 13.378906 6.953125 C 13.34375 6.984375 13.328125 6.949219 13.316406 6.921875 C 13.3125 6.941406 13.300781 6.953125 13.289062 6.964844 L 13.246094 6.890625 C 13.238281 6.921875 13.261719 6.953125 13.226562 6.96875 C 13.1875 6.984375 13.257812 6.902344 13.21875 6.875 C 13.175781 6.847656 13.1875 6.9375 13.160156 6.902344 C 13.152344 6.917969 13.15625 6.933594 13.171875 6.945312 C 13.144531 6.917969 13.097656 6.925781 13.089844 6.882812 C 13.085938 6.839844 13 6.859375 12.992188 6.933594 C 12.976562 6.902344 12.957031 6.878906 12.925781 6.863281 C 12.960938 6.957031 12.828125 6.851562 12.824219 6.949219 C 12.804688 6.867188 12.703125 6.898438 12.648438 6.84375 C 12.59375 6.792969 12.660156 6.863281 12.664062 6.863281 C 12.667969 6.859375 12.613281 6.882812 12.589844 6.898438 C 12.5625 6.914062 12.542969 6.816406 12.515625 6.773438 C 12.492188 6.726562 12.535156 6.851562 12.515625 6.90625 C 12.496094 6.964844 12.445312 6.851562 12.464844 6.808594 C 12.425781 6.84375 12.4375 6.824219 12.414062 6.875 C 12.414062 6.796875 12.386719 6.859375 12.363281 6.808594 C 12.339844 6.757812 12.339844 6.886719 12.292969 6.855469 C 12.242188 6.824219 12.308594 6.910156 12.308594 6.910156 C 12.308594 6.910156 12.289062 6.851562 12.277344 6.808594 C 12.269531 6.769531 12.246094 6.855469 12.226562 6.886719 C 12.203125 6.917969 12.160156 6.808594 12.132812 6.804688 C 12.105469 6.800781 12.121094 6.816406 12.128906 6.832031 C 12.136719 6.847656 12.003906 6.816406 11.960938 6.753906 L 11.957031 6.769531 C 11.964844 6.742188 11.96875 6.710938 11.96875 6.683594 C 11.945312 6.679688 11.925781 6.636719 11.914062 6.683594 C 11.902344 6.726562 11.929688 6.695312 11.9375 6.707031 L 11.914062 6.691406 C 11.886719 6.746094 11.945312 6.710938 11.945312 6.757812 C 11.890625 6.734375 11.839844 6.679688 11.804688 6.695312 C 11.765625 6.707031 11.890625 6.714844 11.832031 6.765625 L 11.894531 6.746094 C 11.839844 6.835938 11.929688 6.746094 11.878906 6.835938 C 11.832031 6.929688 11.800781 6.800781 11.722656 6.8125 C 11.644531 6.824219 11.730469 6.769531 11.71875 6.734375 C 11.707031 6.703125 11.625 6.875 11.550781 6.792969 C 11.476562 6.710938 11.527344 6.683594 11.46875 6.71875 L 11.480469 6.789062 C 11.410156 6.789062 11.445312 6.691406 11.367188 6.730469 C 11.378906 6.753906 11.425781 6.753906 11.410156 6.761719 C 11.394531 6.773438 11.378906 6.722656 11.34375 6.726562 L 11.332031 6.785156 C 11.253906 6.769531 11.167969 6.722656 11.082031 6.710938 C 11 6.703125 11.101562 6.746094 11.082031 6.765625 C 11.023438 6.746094 10.96875 6.742188 10.910156 6.75 C 10.855469 6.761719 10.796875 6.777344 10.742188 6.796875 L 10.703125 6.75 C 10.691406 6.75 10.683594 6.773438 10.695312 6.777344 C 10.703125 6.785156 10.691406 6.75 10.671875 6.730469 C 10.65625 6.714844 10.640625 6.757812 10.660156 6.773438 C 10.582031 6.730469 10.453125 6.683594 10.371094 6.738281 L 10.382812 6.757812 C 10.324219 6.777344 10.316406 6.652344 10.261719 6.703125 L 10.265625 6.710938 C 10.136719 6.734375 9.992188 6.6875 9.902344 6.773438 C 9.878906 6.703125 9.773438 6.8125 9.761719 6.710938 C 9.6875 6.765625 9.710938 6.785156 9.613281 6.824219 C 9.511719 6.859375 9.5625 6.757812 9.53125 6.75 L 9.53125 6.804688 L 9.480469 6.753906 L 9.460938 6.816406 L 9.425781 6.804688 C 9.445312 6.800781 9.453125 6.785156 9.449219 6.765625 C 9.390625 6.753906 9.351562 6.777344 9.332031 6.832031 L 9.210938 6.800781 C 9.210938 6.8125 9.230469 6.820312 9.238281 6.828125 C 9.25 6.835938 9.238281 6.886719 9.183594 6.847656 C 9.128906 6.808594 9.175781 6.820312 9.175781 6.808594 C 9.132812 6.84375 9.085938 6.851562 9.03125 6.835938 L 9.050781 6.871094 C 8.953125 6.878906 8.859375 6.882812 8.765625 6.878906 C 8.796875 6.859375 8.785156 6.804688 8.757812 6.800781 L 8.75 6.855469 C 8.730469 6.820312 8.777344 6.828125 8.738281 6.792969 C 8.699219 6.753906 8.71875 6.855469 8.742188 6.875 L 8.691406 6.855469 C 8.695312 6.875 8.707031 6.882812 8.710938 6.902344 C 8.71875 6.925781 8.636719 6.964844 8.605469 6.90625 L 8.601562 6.925781 C 8.527344 6.929688 8.453125 6.929688 8.382812 6.925781 C 8.375 6.878906 8.34375 6.894531 8.316406 6.859375 C 8.289062 6.820312 8.195312 6.925781 8.128906 6.933594 C 8.058594 6.941406 8.105469 6.894531 8.078125 6.871094 C 8.050781 6.847656 8.011719 6.921875 8.050781 6.945312 C 7.976562 6.953125 7.902344 6.949219 7.832031 6.933594 C 7.839844 6.917969 7.855469 6.910156 7.84375 6.894531 C 7.835938 6.878906 7.800781 6.917969 7.804688 6.9375 L 7.808594 6.933594 C 7.683594 6.890625 7.554688 7.097656 7.441406 7.027344 L 7.449219 7.023438 L 7.34375 7 C 7.296875 7.011719 7.371094 7.027344 7.34375 7.058594 C 7.226562 7.011719 7.179688 7.101562 7.085938 7.070312 C 7.039062 7.207031 6.839844 7.105469 6.769531 7.207031 L 6.765625 7.175781 C 6.738281 7.152344 6.742188 7.195312 6.722656 7.207031 C 6.703125 7.21875 6.742188 7.175781 6.726562 7.167969 C 6.621094 7.167969 6.519531 7.191406 6.425781 7.242188 C 6.328125 7.285156 6.230469 7.339844 6.132812 7.375 C 6.035156 7.410156 6.050781 7.234375 5.972656 7.324219 L 6.015625 7.371094 C 5.9375 7.363281 5.859375 7.371094 5.78125 7.394531 C 5.710938 7.429688 5.632812 7.445312 5.554688 7.441406 C 5.566406 7.449219 5.570312 7.464844 5.582031 7.464844 C 5.59375 7.464844 5.46875 7.496094 5.460938 7.46875 C 5.453125 7.441406 5.460938 7.496094 5.457031 7.515625 C 5.449219 7.539062 5.363281 7.488281 5.363281 7.53125 C 5.363281 7.578125 5.371094 7.539062 5.378906 7.542969 C 5.386719 7.542969 5.289062 7.574219 5.292969 7.527344 C 5.242188 7.5625 5.183594 7.539062 5.144531 7.574219 C 5.105469 7.609375 5.058594 7.628906 5.035156 7.558594 C 5.054688 7.628906 4.953125 7.644531 4.910156 7.625 C 4.863281 7.605469 4.886719 7.65625 4.910156 7.683594 C 4.929688 7.707031 4.832031 7.695312 4.828125 7.652344 C 4.78125 7.761719 4.660156 7.628906 4.652344 7.757812 C 4.535156 7.753906 4.417969 7.765625 4.300781 7.785156 C 4.335938 7.855469 4.421875 7.753906 4.441406 7.828125 C 4.332031 7.828125 4.253906 7.792969 4.164062 7.84375 C 4.078125 7.890625 4.191406 7.867188 4.207031 7.878906 C 4.09375 7.875 4.015625 7.953125 3.914062 7.945312 C 3.8125 7.941406 3.933594 7.957031 3.941406 7.960938 C 3.953125 7.96875 3.910156 7.980469 3.898438 7.949219 L 3.921875 7.957031 C 3.925781 7.894531 3.8125 7.882812 3.800781 7.863281 C 3.867188 7.941406 3.722656 7.917969 3.816406 8.015625 C 3.796875 8.011719 3.78125 8 3.773438 7.984375 C 3.761719 7.996094 3.761719 8.007812 3.785156 8.027344 C 3.808594 8.046875 3.726562 7.988281 3.675781 8.011719 C 3.683594 8.027344 3.695312 8.035156 3.707031 8.046875 C 3.667969 8.023438 3.625 8.007812 3.585938 8.039062 C 3.542969 8.070312 3.589844 8.0625 3.605469 8.050781 C 3.523438 8.078125 3.4375 8.027344 3.363281 8.089844 C 3.414062 8.148438 3.339844 8.128906 3.359375 8.1875 L 3.304688 8.183594 L 3.3125 8.148438 C 3.273438 8.171875 3.21875 8.144531 3.191406 8.179688 L 3.230469 8.1875 L 3.15625 8.214844 L 3.1875 8.167969 C 3.132812 8.164062 3.15625 8.09375 3.109375 8.136719 C 3.0625 8.175781 3.070312 8.15625 3.0625 8.203125 L 3.066406 8.199219 C 3.039062 8.191406 3.007812 8.183594 2.984375 8.207031 C 2.960938 8.234375 3.015625 8.265625 3.019531 8.285156 C 3.023438 8.300781 2.917969 8.308594 2.871094 8.273438 C 2.882812 8.285156 2.890625 8.300781 2.894531 8.316406 L 2.863281 8.28125 C 2.851562 8.304688 2.847656 8.3125 2.863281 8.335938 C 2.875 8.359375 2.847656 8.253906 2.796875 8.3125 C 2.75 8.375 2.804688 8.324219 2.816406 8.324219 C 2.828125 8.324219 2.675781 8.359375 2.625 8.40625 C 2.574219 8.457031 2.679688 8.394531 2.683594 8.453125 C 2.632812 8.464844 2.582031 8.476562 2.53125 8.480469 C 2.480469 8.484375 2.433594 8.496094 2.390625 8.519531 L 2.40625 8.511719 C 2.355469 8.4375 2.363281 8.589844 2.304688 8.570312 C 2.242188 8.554688 2.339844 8.609375 2.328125 8.601562 C 2.316406 8.597656 2.203125 8.640625 2.101562 8.660156 L 2.125 8.675781 C 2.085938 8.707031 2.050781 8.734375 2.007812 8.757812 C 1.984375 8.742188 1.96875 8.757812 1.960938 8.722656 C 1.910156 8.894531 1.714844 8.765625 1.664062 8.917969 C 1.675781 8.910156 1.707031 8.917969 1.695312 8.925781 L 1.601562 8.953125 C 1.589844 8.917969 1.601562 8.929688 1.605469 8.894531 C 1.582031 8.875 1.558594 8.871094 1.53125 8.882812 C 1.578125 8.890625 1.554688 8.941406 1.554688 8.96875 C 1.550781 8.996094 1.535156 8.953125 1.535156 8.9375 C 1.535156 8.925781 1.492188 8.875 1.453125 8.949219 L 1.460938 8.964844 C 1.433594 8.972656 1.398438 8.960938 1.378906 8.980469 C 1.355469 8.996094 1.410156 8.980469 1.429688 9.011719 C 1.449219 9.046875 1.324219 8.976562 1.3125 9.035156 L 1.371094 9.027344 C 1.371094 9.09375 1.359375 9.082031 1.339844 9.105469 L 1.292969 9.15625 L 1.296875 9.132812 C 1.199219 9.054688 1.203125 9.160156 1.109375 9.132812 C 1.203125 9.160156 1.136719 9.160156 1.167969 9.203125 C 1.199219 9.242188 1.148438 9.246094 1.160156 9.257812 C 1.175781 9.269531 1.132812 9.3125 1.066406 9.28125 C 0.996094 9.25 1.035156 9.296875 1.0625 9.332031 C 1.089844 9.371094 1.054688 9.296875 1.042969 9.285156 C 1.027344 9.273438 0.957031 9.421875 0.84375 9.402344 C 0.726562 9.382812 0.71875 9.375 0.640625 9.386719 C 0.5625 9.398438 0.691406 9.429688 0.691406 9.429688 C 0.671875 9.46875 0.640625 9.484375 0.601562 9.488281 C 0.617188 9.492188 0.613281 9.507812 0.617188 9.53125 C 0.625 9.550781 0.566406 9.488281 0.546875 9.53125 C 0.566406 9.546875 0.585938 9.558594 0.609375 9.566406 C 0.566406 9.574219 0.527344 9.574219 0.488281 9.574219 C 0.5 9.609375 0.535156 9.601562 0.554688 9.613281 Z M 11.210938 6.390625 C 11.207031 6.382812 11.207031 6.375 11.203125 6.363281 C 11.1875 6.359375 11.179688 6.363281 11.175781 6.378906 Z M 11.101562 6.699219 L 11.074219 6.695312 Z M 11.019531 6.691406 C 11.023438 6.675781 11.019531 6.65625 11.007812 6.65625 C 10.996094 6.660156 10.988281 6.683594 10.972656 6.691406 Z M 3.871094 7.679688 L 3.886719 7.683594 C 3.878906 7.683594 3.871094 7.6875 3.871094 7.679688 Z M 0.429688 9.585938 Z M 5.132812 7.234375 Z M 1.347656 9.105469 L 1.320312 9.140625 Z M 3.144531 8.199219 C 3.136719 8.214844 3.121094 8.21875 3.105469 8.214844 C 3.117188 8.207031 3.125 8.199219 3.144531 8.199219 Z M 0.625 9.550781 C 0.628906 9.558594 0.636719 9.566406 0.644531 9.566406 C 0.640625 9.570312 0.636719 9.570312 0.632812 9.566406 C 0.625 9.566406 0.621094 9.558594 0.625 9.550781 Z M 1.554688 8.972656 C 1.558594 8.976562 1.558594 8.980469 1.554688 8.984375 Z M 1.191406 9.21875 C 1.183594 9.214844 1.179688 9.210938 1.175781 9.203125 Z M 2.71875 8.445312 L 2.695312 8.40625 L 2.730469 8.402344 Z M 0.695312 9.519531 L 0.703125 9.53125 C 0.703125 9.527344 0.699219 9.523438 0.695312 9.519531 Z M 7.007812 6.710938 C 6.980469 6.761719 7.085938 6.753906 7.035156 6.8125 C 6.984375 6.875 6.964844 6.75 7.007812 6.710938 Z M 0.765625 9.484375 C 0.75 9.492188 0.746094 9.535156 0.722656 9.542969 L 0.714844 9.527344 C 0.730469 9.546875 0.734375 9.464844 0.765625 9.484375 Z M 0.644531 9.566406 Z M 9.535156 6.8125 L 9.539062 6.820312 Z M 3.105469 8.214844 C 3.09375 8.230469 3.078125 8.230469 3.074219 8.207031 Z M 12.984375 6.945312 Z M 13.488281 6.773438 L 13.484375 6.773438 L 13.488281 6.753906 Z M 9.421875 6.796875 L 9.425781 6.804688 C 9.425781 6.804688 9.421875 6.800781 9.421875 6.796875 Z M 3.949219 7.972656 L 3.953125 7.96875 C 3.972656 7.972656 3.960938 7.972656 3.949219 7.972656 Z M 4.914062 7.691406 Z M 5.128906 7.625 L 5.152344 7.582031 C 5.152344 7.585938 5.160156 7.589844 5.164062 7.59375 Z M 4.917969 7.6875 Z M 4.917969 7.6875 " fill-opacity="1" fill-rule="nonzero"/></g></g></g></g></g></g></g><g transform="matrix(1, 0, 0, 1, 4, 7)"><g clip-path="url(#0596d6e929)"><g clip-path="url(#0ec7b2d722)"><g fill="#000000" fill-opacity="1"><g transform="translate(1.6833, 10.213682)"><g><path d="M 3.265625 -2.28125 L 3.1875 -2.265625 L 3.390625 -0.75 C 3.390625 -0.75 3.273438 -0.707031 3.046875 -0.625 C 2.816406 -0.550781 2.519531 -0.472656 2.15625 -0.390625 C 1.914062 -0.335938 1.695312 -0.296875 1.5 -0.265625 C 1.3125 -0.234375 1.15625 -0.210938 1.03125 -0.203125 C 0.914062 -0.191406 0.859375 -0.1875 0.859375 -0.1875 L -0.359375 -2.390625 L -0.765625 -4.25 C -0.765625 -4.25 -0.671875 -4.273438 -0.484375 -4.328125 C -0.304688 -4.390625 -0.0546875 -4.460938 0.265625 -4.546875 C 0.597656 -4.628906 0.984375 -4.71875 1.421875 -4.8125 L 1.71875 -3.140625 L 1.78125 -3.15625 L 1.671875 -4.875 L 3.546875 -5.28125 L 4.140625 -3.671875 L 4.21875 -3.6875 L 3.78125 -5.328125 C 4.21875 -5.421875 4.597656 -5.5 4.921875 -5.5625 C 5.253906 -5.625 5.515625 -5.664062 5.703125 -5.6875 C 5.898438 -5.71875 6 -5.734375 6 -5.734375 L 6.40625 -3.875 L 6.234375 -1.359375 C 6.234375 -1.359375 6.175781 -1.335938 6.0625 -1.296875 C 5.945312 -1.265625 5.789062 -1.21875 5.59375 -1.15625 C 5.40625 -1.101562 5.195312 -1.054688 4.96875 -1.015625 C 4.59375 -0.929688 4.285156 -0.875 4.046875 -0.84375 C 3.816406 -0.820312 3.703125 -0.8125 3.703125 -0.8125 Z M 3.265625 -2.28125 "/></g></g></g></g><g fill="#000000" fill-opacity="1"><g transform="translate(8.4181, 8.735511)"><g><path d="M -0.140625 -1.234375 C -0.210938 -1.554688 -0.222656 -1.832031 -0.171875 -2.0625 C -0.128906 -2.289062 0.0078125 -2.484375 0.25 -2.640625 C 0.488281 -2.804688 0.851562 -2.941406 1.34375 -3.046875 L 1.859375 -3.15625 C 1.921875 -3.175781 1.945312 -3.210938 1.9375 -3.265625 C 1.925781 -3.328125 1.890625 -3.347656 1.828125 -3.328125 C 1.234375 -3.203125 0.757812 -3.082031 0.40625 -2.96875 C 0.0507812 -2.851562 -0.125 -2.796875 -0.125 -2.796875 C -0.125 -2.796875 -0.148438 -2.875 -0.203125 -3.03125 C -0.265625 -3.1875 -0.316406 -3.378906 -0.359375 -3.609375 C -0.410156 -3.816406 -0.4375 -3.988281 -0.4375 -4.125 C -0.445312 -4.257812 -0.453125 -4.328125 -0.453125 -4.328125 C -0.453125 -4.328125 -0.289062 -4.378906 0.03125 -4.484375 C 0.351562 -4.585938 0.8125 -4.703125 1.40625 -4.828125 C 2.175781 -4.992188 2.773438 -5.015625 3.203125 -4.890625 C 3.628906 -4.773438 3.898438 -4.457031 4.015625 -3.9375 L 4.65625 -1.015625 C 4.65625 -1.015625 4.585938 -0.992188 4.453125 -0.953125 C 4.328125 -0.921875 4.15625 -0.867188 3.9375 -0.796875 C 3.71875 -0.734375 3.46875 -0.664062 3.1875 -0.59375 C 2.90625 -0.519531 2.609375 -0.453125 2.296875 -0.390625 C 1.859375 -0.296875 1.492188 -0.238281 1.203125 -0.21875 C 0.921875 -0.195312 0.691406 -0.21875 0.515625 -0.28125 C 0.335938 -0.34375 0.195312 -0.453125 0.09375 -0.609375 C -0.0078125 -0.773438 -0.0859375 -0.984375 -0.140625 -1.234375 Z M 2.203125 -1.625 L 2.078125 -2.171875 C 2.015625 -2.160156 1.972656 -2.144531 1.953125 -2.125 C 1.941406 -2.113281 1.945312 -2.082031 1.96875 -2.03125 L 2.03125 -1.71875 C 2.039062 -1.664062 2.054688 -1.632812 2.078125 -1.625 C 2.097656 -1.613281 2.140625 -1.613281 2.203125 -1.625 Z M 2.203125 -1.625 "/></g></g></g><g clip-path="url(#028001cf11)"><g fill="#000000" fill-opacity="1"><g transform="translate(13.120645, 7.703384)"><g><path d="M 2.3125 -0.515625 L 2.640625 0.953125 C 2.640625 0.953125 2.585938 0.972656 2.484375 1.015625 C 2.390625 1.054688 2.265625 1.097656 2.109375 1.140625 C 1.960938 1.179688 1.796875 1.222656 1.609375 1.265625 C 1.429688 1.304688 1.253906 1.335938 1.078125 1.359375 C 0.898438 1.390625 0.753906 1.410156 0.640625 1.421875 C 0.535156 1.429688 0.484375 1.4375 0.484375 1.4375 L -0.765625 -4.25 C -0.765625 -4.25 -0.6875 -4.269531 -0.53125 -4.3125 C -0.375 -4.351562 -0.171875 -4.40625 0.078125 -4.46875 C 0.335938 -4.539062 0.617188 -4.613281 0.921875 -4.6875 C 1.234375 -4.757812 1.546875 -4.828125 1.859375 -4.890625 C 2.304688 -4.992188 2.679688 -5.007812 2.984375 -4.9375 C 3.285156 -4.875 3.535156 -4.703125 3.734375 -4.421875 C 3.941406 -4.140625 4.109375 -3.710938 4.234375 -3.140625 C 4.347656 -2.640625 4.382812 -2.21875 4.34375 -1.875 C 4.300781 -1.539062 4.171875 -1.269531 3.953125 -1.0625 C 3.734375 -0.851562 3.40625 -0.703125 2.96875 -0.609375 C 2.78125 -0.566406 2.625 -0.539062 2.5 -0.53125 C 2.375 -0.519531 2.3125 -0.515625 2.3125 -0.515625 Z M 1.734375 -3.25 L 1.984375 -2.0625 C 2.035156 -2.070312 2.070312 -2.082031 2.09375 -2.09375 C 2.125 -2.113281 2.132812 -2.144531 2.125 -2.1875 L 1.90625 -3.15625 C 1.894531 -3.207031 1.875 -3.238281 1.84375 -3.25 C 1.820312 -3.257812 1.785156 -3.257812 1.734375 -3.25 Z M 1.734375 -3.25 "/></g></g></g></g></g></g></svg>